<svg xmlns="http://www.w3.org/2000/svg" xmlns:xlink="http://www.w3.org/1999/xlink" version="1.1" class="marks" width="684" height="548" viewBox="0 0 684 548"><rect width="684" height="548" fill="#ffffff"/><g fill="none" stroke-miterlimit="10" transform="translate(66,107)"><g class="mark-group role-frame root" role="graphics-object" aria-roledescription="group mark container"><g transform="translate(0,0)"><path class="background" aria-hidden="true" d="M0,0h600v380h-600Z"/><g><g class="mark-group role-axis" aria-hidden="true"><g transform="translate(0.5,0.5)"><path class="background" aria-hidden="true" d="M0,0h0v0h0Z" pointer-events="none"/><g><g class="mark-rule role-axis-grid" pointer-events="none"><line transform="translate(0,380)" x2="600" y2="0" stroke="#ececf0" stroke-width="1" opacity="1"/><line transform="translate(0,338)" x2="600" y2="0" stroke="#ececf0" stroke-width="1" opacity="1"/><line transform="translate(0,296)" x2="600" y2="0" stroke="#ececf0" stroke-width="1" opacity="1"/><line transform="translate(0,253)" x2="600" y2="0" stroke="#ececf0" stroke-width="1" opacity="1"/><line transform="translate(0,211)" x2="600" y2="0" stroke="#ececf0" stroke-width="1" opacity="1"/><line transform="translate(0,169)" x2="600" y2="0" stroke="#ececf0" stroke-width="1" opacity="1"/><line transform="translate(0,127)" x2="600" y2="0" stroke="#ececf0" stroke-width="1" opacity="1"/><line transform="translate(0,84)" x2="600" y2="0" stroke="#ececf0" stroke-width="1" opacity="1"/><line transform="translate(0,42)" x2="600" y2="0" stroke="#ececf0" stroke-width="1" opacity="1"/><line transform="translate(0,0)" x2="600" y2="0" stroke="#ececf0" stroke-width="1" opacity="1"/></g></g><path class="foreground" aria-hidden="true" d="" pointer-events="none" display="none"/></g></g><g class="mark-group role-axis" role="graphics-symbol" aria-roledescription="axis" aria-label="X-axis titled 'Quarter' for a discrete scale with 4 values: Q1, Q2, Q3, Q4"><g transform="translate(0.5,380.5)"><path class="background" aria-hidden="true" d="M0,0h0v0h0Z" pointer-events="none"/><g><g class="mark-rule role-axis-tick" pointer-events="none"><line transform="translate(85,0)" x2="0" y2="5" stroke="#c9ced6" stroke-width="1" opacity="1"/><line transform="translate(228,0)" x2="0" y2="5" stroke="#c9ced6" stroke-width="1" opacity="1"/><line transform="translate(371,0)" x2="0" y2="5" stroke="#c9ced6" stroke-width="1" opacity="1"/><line transform="translate(514,0)" x2="0" y2="5" stroke="#c9ced6" stroke-width="1" opacity="1"/></g><g class="mark-text role-axis-label" pointer-events="none"><text text-anchor="middle" transform="translate(85.2142857142857,20)" font-family="Inter" font-size="11px" fill="#5f6b7a" opacity="1">Q1</text><text text-anchor="middle" transform="translate(228.07142857142856,20)" font-family="Inter" font-size="11px" fill="#5f6b7a" opacity="1">Q2</text><text text-anchor="middle" transform="translate(370.92857142857144,20)" font-family="Inter" font-size="11px" fill="#5f6b7a" opacity="1">Q3</text><text text-anchor="middle" transform="translate(513.7857142857142,20)" font-family="Inter" font-size="11px" fill="#5f6b7a" opacity="1">Q4</text></g><g class="mark-rule role-axis-domain" pointer-events="none"><line transform="translate(0,0)" x2="600" y2="0" stroke="#c9ced6" stroke-width="1" opacity="1"/></g><g class="mark-text role-axis-title" pointer-events="none"><text text-anchor="middle" transform="translate(300,41)" font-family="Inter" font-size="12px" font-weight="600" fill="#1c1e21" opacity="1">Quarter</text></g></g><path class="foreground" aria-hidden="true" d="" pointer-events="none" display="none"/></g></g><g class="mark-group role-axis" role="graphics-symbol" aria-roledescription="axis" aria-label="Y-axis titled 'Revenue' for a linear scale with values from 0 to 180"><g transform="translate(0.5,0.5)"><path class="background" aria-hidden="true" d="M0,0h0v0h0Z" pointer-events="none"/><g><g class="mark-text role-axis-label" pointer-events="none"><text text-anchor="end" transform="translate(-6,383)" font-family="Inter" font-size="11px" fill="#5f6b7a" opacity="1">0</text><text text-anchor="end" transform="translate(-6,340.77777777777777)" font-family="Inter" font-size="11px" fill="#5f6b7a" opacity="1">20</text><text text-anchor="end" transform="translate(-6,298.55555555555554)" font-family="Inter" font-size="11px" fill="#5f6b7a" opacity="1">40</text><text text-anchor="end" transform="translate(-6,256.33333333333337)" font-family="Inter" font-size="11px" fill="#5f6b7a" opacity="1">60</text><text text-anchor="end" transform="translate(-6,214.11111111111111)" font-family="Inter" font-size="11px" fill="#5f6b7a" opacity="1">80</text><text text-anchor="end" transform="translate(-6,171.88888888888889)" font-family="Inter" font-size="11px" fill="#5f6b7a" opacity="1">100</text><text text-anchor="end" transform="translate(-6,129.66666666666669)" font-family="Inter" font-size="11px" fill="#5f6b7a" opacity="1">120</text><text text-anchor="end" transform="translate(-6,87.44444444444444)" font-family="Inter" font-size="11px" fill="#5f6b7a" opacity="1">140</text><text text-anchor="end" transform="translate(-6,45.22222222222224)" font-family="Inter" font-size="11px" fill="#5f6b7a" opacity="1">160</text><text text-anchor="end" transform="translate(-6,3)" font-family="Inter" font-size="11px" fill="#5f6b7a" opacity="1">180</text></g><g class="mark-text role-axis-title" pointer-events="none"><text text-anchor="middle" transform="translate(-34.51953125,190) rotate(-90) translate(0,-3)" font-family="Inter" font-size="12px" font-weight="600" fill="#1c1e21" opacity="1">Revenue</text></g></g><path class="foreground" aria-hidden="true" d="" pointer-events="none" display="none"/></g></g><g class="mark-rect role-mark marks" role="graphics-object" aria-roledescription="rect mark container"><path aria-label="Quarter: Q1; Revenue: 120; product: Core; Product: Core" role="graphics-symbol" aria-roledescription="bar" d="M87.7142857142857,126.66666666666669L140.85714285714283,126.66666666666669C141.96097290613082,126.66666666666669,142.85714285714283,127.56283661767868,142.85714285714283,128.66666666666669L142.85714285714283,380C142.85714285714283,380,142.85714285714283,380,142.85714285714283,380L85.7142857142857,380C85.7142857142857,380,85.7142857142857,380,85.7142857142857,380L85.7142857142857,128.66666666666669C85.7142857142857,127.56283661767868,86.61045566529769,126.66666666666669,87.7142857142857,126.66666666666669Z" fill="#E69F00"/><path aria-label="Quarter: Q1; Revenue: 48; product: Add-ons; Product: Add-ons" role="graphics-symbol" aria-roledescription="bar" d="M30.571428571428555,278.6666666666667L83.7142857142857,278.6666666666667C84.8181157632737,278.6666666666667,85.7142857142857,279.56283661767867,85.7142857142857,280.6666666666667L85.7142857142857,380C85.7142857142857,380,85.7142857142857,380,85.7142857142857,380L28.571428571428555,380C28.571428571428555,380,28.571428571428555,380,28.571428571428555,380L28.571428571428555,280.6666666666667C28.571428571428555,279.56283661767867,29.467598522440554,278.6666666666667,30.571428571428555,278.6666666666667Z" fill="#0072B2"/><path aria-label="Quarter: Q2; Revenue: 138; product: Core; Product: Core" role="graphics-symbol" aria-roledescription="bar" d="M230.57142857142856,88.66666666666664L283.7142857142857,88.66666666666664C284.81811576327374,88.66666666666664,285.7142857142857,89.56283661767864,285.7142857142857,90.66666666666664L285.7142857142857,380C285.7142857142857,380,285.7142857142857,380,285.7142857142857,380L228.57142857142856,380C228.57142857142856,380,228.57142857142856,380,228.57142857142856,380L228.57142857142856,90.66666666666664C228.57142857142856,89.56283661767864,229.46759852244057,88.66666666666664,230.57142857142856,88.66666666666664Z" fill="#E69F00"/><path aria-label="Quarter: Q2; Revenue: 61; product: Add-ons; Product: Add-ons" role="graphics-symbol" aria-roledescription="bar" d="M173.42857142857142,251.22222222222223L226.57142857142856,251.22222222222223C227.67525862041654,251.22222222222223,228.57142857142856,252.11839217323424,228.57142857142856,253.22222222222223L228.57142857142856,380C228.57142857142856,380,228.57142857142856,380,228.57142857142856,380L171.42857142857142,380C171.42857142857142,380,171.42857142857142,380,171.42857142857142,380L171.42857142857142,253.22222222222223C171.42857142857142,252.11839217323424,172.32474137958343,251.22222222222223,173.42857142857142,251.22222222222223Z" fill="#0072B2"/><path aria-label="Quarter: Q3; Revenue: 145; product: Core; Product: Core" role="graphics-symbol" aria-roledescription="bar" d="M373.42857142857144,73.88888888888889L426.5714285714286,73.88888888888889C427.6752586204166,73.88888888888889,428.5714285714286,74.78505883990088,428.5714285714286,75.88888888888889L428.5714285714286,380C428.5714285714286,380,428.5714285714286,380,428.5714285714286,380L371.42857142857144,380C371.42857142857144,380,371.42857142857144,380,371.42857142857144,380L371.42857142857144,75.88888888888889C371.42857142857144,74.78505883990088,372.32474137958343,73.88888888888889,373.42857142857144,73.88888888888889Z" fill="#E69F00"/><path aria-label="Quarter: Q3; Revenue: 73; product: Add-ons; Product: Add-ons" role="graphics-symbol" aria-roledescription="bar" d="M316.2857142857143,225.88888888888889L369.42857142857144,225.88888888888889C370.53240147755946,225.88888888888889,371.42857142857144,226.7850588399009,371.42857142857144,227.88888888888889L371.42857142857144,380C371.42857142857144,380,371.42857142857144,380,371.42857142857144,380L314.2857142857143,380C314.2857142857143,380,314.2857142857143,380,314.2857142857143,380L314.2857142857143,227.88888888888889C314.2857142857143,226.7850588399009,315.18188423672626,225.88888888888889,316.2857142857143,225.88888888888889Z" fill="#0072B2"/><path aria-label="Quarter: Q4; Revenue: 162; product: Core; Product: Core" role="graphics-symbol" aria-roledescription="bar" d="M516.2857142857142,37.99999999999999L569.4285714285713,37.99999999999999C570.5324014775593,37.99999999999999,571.4285714285713,38.89616995101199,571.4285714285713,39.99999999999999L571.4285714285713,380C571.4285714285713,380,571.4285714285713,380,571.4285714285713,380L514.2857142857142,380C514.2857142857142,380,514.2857142857142,380,514.2857142857142,380L514.2857142857142,39.99999999999999C514.2857142857142,38.89616995101199,515.1818842367262,37.99999999999999,516.2857142857142,37.99999999999999Z" fill="#E69F00"/><path aria-label="Quarter: Q4; Revenue: 89; product: Add-ons; Product: Add-ons" role="graphics-symbol" aria-roledescription="bar" d="M459.1428571428571,192.11111111111111L512.2857142857142,192.11111111111111C513.3895443347022,192.11111111111111,514.2857142857142,193.00728106212313,514.2857142857142,194.11111111111111L514.2857142857142,380C514.2857142857142,380,514.2857142857142,380,514.2857142857142,380L457.1428571428571,380C457.1428571428571,380,457.1428571428571,380,457.1428571428571,380L457.1428571428571,194.11111111111111C457.1428571428571,193.00728106212313,458.0390270938691,192.11111111111111,459.1428571428571,192.11111111111111Z" fill="#0072B2"/></g><g class="mark-group role-legend" role="graphics-symbol" aria-roledescription="legend" aria-label="Symbol legend titled 'Product' for fill color with 2 values: Add-ons, Core"><g transform="translate(0,-40)"><path class="background" aria-hidden="true" d="M0,0h120v32h-120Z" pointer-events="none"/><g><g class="mark-group role-legend-entry"><g transform="translate(0,20)"><path class="background" aria-hidden="true" d="M0,0h0v0h0Z" pointer-events="none"/><g><g class="mark-group role-scope" role="graphics-object" aria-roledescription="group mark container"><g transform="translate(0,0)"><path class="background" aria-hidden="true" d="M0,0h65.11328125v12h-65.11328125Z" pointer-events="none" opacity="1"/><g><g class="mark-symbol role-legend-symbol" pointer-events="none"><path transform="translate(6,6)" d="M4.743,0A4.743,4.743,0,1,1,-4.743,0A4.743,4.743,0,1,1,4.743,0" fill="#0072B2" stroke-width="1.5" opacity="1"/></g><g class="mark-text role-legend-label" pointer-events="none"><text text-anchor="start" transform="translate(16,10)" font-family="Inter" font-size="12px" fill="#1c1e21" opacity="1">Add-ons</text></g></g><path class="foreground" aria-hidden="true" d="" pointer-events="none" display="none"/></g><g transform="translate(76,0)"><path class="background" aria-hidden="true" d="M0,0h43.275390625v12h-43.275390625Z" pointer-events="none" opacity="1"/><g><g class="mark-symbol role-legend-symbol" pointer-events="none"><path transform="translate(6,6)" d="M4.743,0A4.743,4.743,0,1,1,-4.743,0A4.743,4.743,0,1,1,4.743,0" fill="#E69F00" stroke-width="1.5" opacity="1"/></g><g class="mark-text role-legend-label" pointer-events="none"><text text-anchor="start" transform="translate(16,10)" font-family="Inter" font-size="12px" fill="#1c1e21" opacity="1">Core</text></g></g><path class="foreground" aria-hidden="true" d="" pointer-events="none" display="none"/></g></g></g><path class="foreground" aria-hidden="true" d="" pointer-events="none" display="none"/></g></g><g class="mark-text role-legend-title" pointer-events="none"><text text-anchor="start" transform="translate(0,9)" font-family="Inter" font-size="12px" font-weight="600" fill="#5f6b7a" opacity="1">Product</text></g></g><path class="foreground" aria-hidden="true" d="" pointer-events="none" display="none"/></g></g><g class="mark-group role-title"><g transform="translate(-47.51953125,-89)"><path class="background" aria-hidden="true" d="M0,0h0v0h0Z" pointer-events="none"/><g><g class="mark-text role-title-text" role="graphics-symbol" aria-roledescription="title" aria-label="Title text 'Revenue by quarter'" pointer-events="none"><text text-anchor="start" transform="translate(0,13)" font-family="Inter" font-size="16px" font-weight="700" fill="#1c1e21" opacity="1">Revenue by quarter</text></g><g class="mark-text role-title-subtitle" role="graphics-symbol" aria-roledescription="subtitle" aria-label="Subtitle text 'Core vs add-ons ($M)'" pointer-events="none"><text text-anchor="start" transform="translate(0,32)" font-family="Inter" font-size="13px" font-weight="400" fill="#5f6b7a" opacity="1">Core vs add-ons ($M)</text></g></g><path class="foreground" aria-hidden="true" d="" pointer-events="none" display="none"/></g></g></g><path class="foreground" aria-hidden="true" d="" display="none"/></g></g></g></svg>