<svg xmlns="http://www.w3.org/2000/svg" xmlns:xlink="http://www.w3.org/1999/xlink" version="1.1" class="marks" width="692" height="540" viewBox="0 0 692 540"><rect width="692" height="514" fill="#ffffff"/><g fill="none" stroke-miterlimit="10" transform="translate(74,73)"><g class="mark-group role-frame root" role="graphics-object" aria-roledescription="group mark container"><g transform="translate(0,0)"><path class="background" aria-hidden="true" d="M0,0h600v380h-600Z"/><g><g class="mark-group role-axis" aria-hidden="true"><g transform="translate(0.5,0.5)"><path class="background" aria-hidden="true" d="M0,0h0v0h0Z" pointer-events="none"/><g><g class="mark-rule role-axis-grid" pointer-events="none"><line transform="translate(0,380)" x2="600" y2="0" stroke="#ececf0" stroke-width="1" opacity="1"/><line transform="translate(0,338)" x2="600" y2="0" stroke="#ececf0" stroke-width="1" opacity="1"/><line transform="translate(0,296)" x2="600" y2="0" stroke="#ececf0" stroke-width="1" opacity="1"/><line transform="translate(0,253)" x2="600" y2="0" stroke="#ececf0" stroke-width="1" opacity="1"/><line transform="translate(0,211)" x2="600" y2="0" stroke="#ececf0" stroke-width="1" opacity="1"/><line transform="translate(0,169)" x2="600" y2="0" stroke="#ececf0" stroke-width="1" opacity="1"/><line transform="translate(0,127)" x2="600" y2="0" stroke="#ececf0" stroke-width="1" opacity="1"/><line transform="translate(0,84)" x2="600" y2="0" stroke="#ececf0" stroke-width="1" opacity="1"/><line transform="translate(0,42)" x2="600" y2="0" stroke="#ececf0" stroke-width="1" opacity="1"/><line transform="translate(0,0)" x2="600" y2="0" stroke="#ececf0" stroke-width="1" opacity="1"/></g></g><path class="foreground" aria-hidden="true" d="" pointer-events="none" display="none"/></g></g><g class="mark-group role-axis" role="graphics-symbol" aria-roledescription="axis" aria-label="X-axis titled 'Region' for a discrete scale with 5 values: North America, EMEA, APAC, LATAM, MEA"><g transform="translate(0.5,380.5)"><path class="background" aria-hidden="true" d="M0,0h0v0h0Z" pointer-events="none"/><g><g class="mark-rule role-axis-tick" pointer-events="none"><line transform="translate(60,0)" x2="0" y2="5" stroke="#c9ced6" stroke-width="1" opacity="1"/><line transform="translate(180,0)" x2="0" y2="5" stroke="#c9ced6" stroke-width="1" opacity="1"/><line transform="translate(300,0)" x2="0" y2="5" stroke="#c9ced6" stroke-width="1" opacity="1"/><line transform="translate(420,0)" x2="0" y2="5" stroke="#c9ced6" stroke-width="1" opacity="1"/><line transform="translate(540,0)" x2="0" y2="5" stroke="#c9ced6" stroke-width="1" opacity="1"/></g><g class="mark-text role-axis-label" pointer-events="none"><text text-anchor="middle" transform="translate(59.5,20)" font-family="Inter" font-size="11px" fill="#5f6b7a" opacity="1">North America</text><text text-anchor="middle" transform="translate(179.5,20)" font-family="Inter" font-size="11px" fill="#5f6b7a" opacity="1">EMEA</text><text text-anchor="middle" transform="translate(299.5,20)" font-family="Inter" font-size="11px" fill="#5f6b7a" opacity="1">APAC</text><text text-anchor="middle" transform="translate(419.5,20)" font-family="Inter" font-size="11px" fill="#5f6b7a" opacity="1">LATAM</text><text text-anchor="middle" transform="translate(539.5,20)" font-family="Inter" font-size="11px" fill="#5f6b7a" opacity="1">MEA</text></g><g class="mark-rule role-axis-domain" pointer-events="none"><line transform="translate(0,0)" x2="600" y2="0" stroke="#c9ced6" stroke-width="1" opacity="1"/></g><g class="mark-text role-axis-title" pointer-events="none"><text text-anchor="middle" transform="translate(300,41)" font-family="Inter" font-size="12px" font-weight="600" fill="#1c1e21" opacity="1">Region</text></g></g><path class="foreground" aria-hidden="true" d="" pointer-events="none" display="none"/></g></g><g class="mark-group role-axis" role="graphics-symbol" aria-roledescription="axis" aria-label="Y-axis titled 'Revenue' for a linear scale with values from 0M to 5M"><g transform="translate(0.5,0.5)"><path class="background" aria-hidden="true" d="M0,0h0v0h0Z" pointer-events="none"/><g><g class="mark-text role-axis-label" pointer-events="none"><text text-anchor="end" transform="translate(-6,383)" font-family="Inter" font-size="11px" fill="#5f6b7a" opacity="1">0M</text><text text-anchor="end" transform="translate(-6,340.77777777777777)" font-family="Inter" font-size="11px" fill="#5f6b7a" opacity="1">0.5M</text><text text-anchor="end" transform="translate(-6,298.55555555555554)" font-family="Inter" font-size="11px" fill="#5f6b7a" opacity="1">1M</text><text text-anchor="end" transform="translate(-6,256.33333333333337)" font-family="Inter" font-size="11px" fill="#5f6b7a" opacity="1">1.5M</text><text text-anchor="end" transform="translate(-6,214.11111111111111)" font-family="Inter" font-size="11px" fill="#5f6b7a" opacity="1">2M</text><text text-anchor="end" transform="translate(-6,171.88888888888889)" font-family="Inter" font-size="11px" fill="#5f6b7a" opacity="1">2.5M</text><text text-anchor="end" transform="translate(-6,129.66666666666669)" font-family="Inter" font-size="11px" fill="#5f6b7a" opacity="1">3M</text><text text-anchor="end" transform="translate(-6,87.44444444444444)" font-family="Inter" font-size="11px" fill="#5f6b7a" opacity="1">3.5M</text><text text-anchor="end" transform="translate(-6,45.22222222222224)" font-family="Inter" font-size="11px" fill="#5f6b7a" opacity="1">4M</text><text text-anchor="end" transform="translate(-6,3)" font-family="Inter" font-size="11px" fill="#5f6b7a" opacity="1">4.5M</text></g><g class="mark-text role-axis-title" pointer-events="none"><text text-anchor="middle" transform="translate(-42.2109375,190) rotate(-90) translate(0,-3)" font-family="Inter" font-size="12px" font-weight="600" fill="#1c1e21" opacity="1">Revenue</text></g></g><path class="foreground" aria-hidden="true" d="" pointer-events="none" display="none"/></g></g><g class="mark-rect role-mark layer_0_marks" role="graphics-object" aria-roledescription="rect mark container"><path aria-label="Region: North America; Revenue: 4.2M" role="graphics-symbol" aria-roledescription="bar" d="M8,25.33333333333333L112,25.33333333333333C113.103830048988,25.33333333333333,114,26.229503284345327,114,27.33333333333333L114,380C114,380,114,380,114,380L6,380C6,380,6,380,6,380L6,27.33333333333333C6,26.229503284345327,6.896169951012,25.33333333333333,8,25.33333333333333Z" fill="#cdd3db"/><path aria-label="Region: EMEA; Revenue: 3.1M" role="graphics-symbol" aria-roledescription="bar" d="M128,118.22222222222223L232,118.22222222222223C233.103830048988,118.22222222222223,234,119.11839217323423,234,120.22222222222223L234,380C234,380,234,380,234,380L126,380C126,380,126,380,126,380L126,120.22222222222223C126,119.11839217323423,126.896169951012,118.22222222222223,128,118.22222222222223Z" fill="#cdd3db"/><path aria-label="Region: APAC; Revenue: 2.75M" role="graphics-symbol" aria-roledescription="bar" d="M248,147.77777777777777L352,147.77777777777777C353.103830048988,147.77777777777777,354,148.67394772878978,354,149.77777777777777L354,380C354,380,354,380,354,380L246,380C246,380,246,380,246,380L246,149.77777777777777C246,148.67394772878978,246.896169951012,147.77777777777777,248,147.77777777777777Z" fill="#0072B2"/><path aria-label="Region: LATAM; Revenue: 980k" role="graphics-symbol" aria-roledescription="bar" d="M368,297.24444444444447L472,297.24444444444447C473.103830048988,297.24444444444447,474,298.14061439545645,474,299.24444444444447L474,380C474,380,474,380,474,380L366,380C366,380,366,380,366,380L366,299.24444444444447C366,298.14061439545645,366.896169951012,297.24444444444447,368,297.24444444444447Z" fill="#cdd3db"/><path aria-label="Region: MEA; Revenue: 540k" role="graphics-symbol" aria-roledescription="bar" d="M488,334.4L592,334.4C593.103830048988,334.4,594,335.29616995101196,594,336.4L594,380C594,380,594,380,594,380L486,380C486,380,486,380,486,380L486,336.4C486,335.29616995101196,486.896169951012,334.4,488,334.4Z" fill="#cdd3db"/></g><g class="mark-text role-mark layer_1_marks" role="graphics-object" aria-roledescription="text mark container"><text aria-label="Region: North America; Revenue: 4.2M; revenue: 4.2M" role="graphics-symbol" aria-roledescription="text mark" text-anchor="middle" transform="translate(60,19.33333333333333)" font-family="Inter" font-size="11px" font-weight="500" fill="#1c1e21">4.2M</text><text aria-label="Region: EMEA; Revenue: 3.1M; revenue: 3.1M" role="graphics-symbol" aria-roledescription="text mark" text-anchor="middle" transform="translate(180,112.22222222222223)" font-family="Inter" font-size="11px" font-weight="500" fill="#1c1e21">3.1M</text><text aria-label="Region: APAC; Revenue: 2.75M; revenue: 2.75M" role="graphics-symbol" aria-roledescription="text mark" text-anchor="middle" transform="translate(300,141.77777777777777)" font-family="Inter" font-size="11px" font-weight="500" fill="#1c1e21">2.75M</text><text aria-label="Region: LATAM; Revenue: 980k; revenue: 980k" role="graphics-symbol" aria-roledescription="text mark" text-anchor="middle" transform="translate(420,291.24444444444447)" font-family="Inter" font-size="11px" font-weight="500" fill="#1c1e21">980k</text><text aria-label="Region: MEA; Revenue: 540k; revenue: 540k" role="graphics-symbol" aria-roledescription="text mark" text-anchor="middle" transform="translate(540,328.4)" font-family="Inter" font-size="11px" font-weight="500" fill="#1c1e21">540k</text></g><g class="mark-group role-title"><g transform="translate(-55.2109375,-55)"><path class="background" aria-hidden="true" d="M0,0h0v0h0Z" pointer-events="none"/><g><g class="mark-text role-title-text" role="graphics-symbol" aria-roledescription="title" aria-label="Title text 'Revenue by region'" pointer-events="none"><text text-anchor="start" transform="translate(0,13)" font-family="Inter" font-size="16px" font-weight="700" fill="#1c1e21" opacity="1">Revenue by region</text></g><g class="mark-text role-title-subtitle" role="graphics-symbol" aria-roledescription="subtitle" aria-label="Subtitle text 'FY2024 · highlighting APAC'" pointer-events="none"><text text-anchor="start" transform="translate(0,32)" font-family="Inter" font-size="13px" font-weight="400" fill="#5f6b7a" opacity="1">FY2024 · highlighting APAC</text></g></g><path class="foreground" aria-hidden="true" d="" pointer-events="none" display="none"/></g></g></g><path class="foreground" aria-hidden="true" d="" display="none"/></g></g></g><text x="18" y="530" font-family="Inter, sans-serif" font-size="11" fill="#8a94a3">Source: internal billing (illustrative)</text></svg>