<svg xmlns="http://www.w3.org/2000/svg" xmlns:xlink="http://www.w3.org/1999/xlink" version="1.1" class="marks" width="680" height="514" viewBox="0 0 680 514"><rect width="680" height="514" fill="#ffffff"/><g fill="none" stroke-miterlimit="10" transform="translate(61,73)"><g class="mark-group role-frame root" role="graphics-object" aria-roledescription="group mark container"><g transform="translate(0,0)"><path class="background" aria-hidden="true" d="M0,0h600v380h-600Z"/><g><g class="mark-group role-axis" aria-hidden="true"><g transform="translate(0.5,0.5)"><path class="background" aria-hidden="true" d="M0,0h0v0h0Z" pointer-events="none"/><g><g class="mark-rule role-axis-grid" pointer-events="none"><line transform="translate(0,380)" x2="600" y2="0" stroke="#ececf0" stroke-width="1" opacity="1"/><line transform="translate(0,345)" x2="600" y2="0" stroke="#ececf0" stroke-width="1" opacity="1"/><line transform="translate(0,311)" x2="600" y2="0" stroke="#ececf0" stroke-width="1" opacity="1"/><line transform="translate(0,276)" x2="600" y2="0" stroke="#ececf0" stroke-width="1" opacity="1"/><line transform="translate(0,242)" x2="600" y2="0" stroke="#ececf0" stroke-width="1" opacity="1"/><line transform="translate(0,207)" x2="600" y2="0" stroke="#ececf0" stroke-width="1" opacity="1"/><line transform="translate(0,173)" x2="600" y2="0" stroke="#ececf0" stroke-width="1" opacity="1"/><line transform="translate(0,138)" x2="600" y2="0" stroke="#ececf0" stroke-width="1" opacity="1"/><line transform="translate(0,104)" x2="600" y2="0" stroke="#ececf0" stroke-width="1" opacity="1"/><line transform="translate(0,69)" x2="600" y2="0" stroke="#ececf0" stroke-width="1" opacity="1"/><line transform="translate(0,35)" x2="600" y2="0" stroke="#ececf0" stroke-width="1" opacity="1"/><line transform="translate(0,0)" x2="600" y2="0" stroke="#ececf0" stroke-width="1" opacity="1"/></g></g><path class="foreground" aria-hidden="true" d="" pointer-events="none" display="none"/></g></g><g class="mark-group role-axis" role="graphics-symbol" aria-roledescription="axis" aria-label="X-axis titled 'Response ms' for a linear scale with values from 180 to 350"><g transform="translate(0.5,380.5)"><path class="background" aria-hidden="true" d="M0,0h0v0h0Z" pointer-events="none"/><g><g class="mark-rule role-axis-tick" pointer-events="none"><line transform="translate(0,0)" x2="0" y2="5" stroke="#c9ced6" stroke-width="1" opacity="1"/><line transform="translate(35,0)" x2="0" y2="5" stroke="#c9ced6" stroke-width="1" opacity="1"/><line transform="translate(71,0)" x2="0" y2="5" stroke="#c9ced6" stroke-width="1" opacity="1"/><line transform="translate(106,0)" x2="0" y2="5" stroke="#c9ced6" stroke-width="1" opacity="1"/><line transform="translate(141,0)" x2="0" y2="5" stroke="#c9ced6" stroke-width="1" opacity="1"/><line transform="translate(176,0)" x2="0" y2="5" stroke="#c9ced6" stroke-width="1" opacity="1"/><line transform="translate(212,0)" x2="0" y2="5" stroke="#c9ced6" stroke-width="1" opacity="1"/><line transform="translate(247,0)" x2="0" y2="5" stroke="#c9ced6" stroke-width="1" opacity="1"/><line transform="translate(282,0)" x2="0" y2="5" stroke="#c9ced6" stroke-width="1" opacity="1"/><line transform="translate(318,0)" x2="0" y2="5" stroke="#c9ced6" stroke-width="1" opacity="1"/><line transform="translate(353,0)" x2="0" y2="5" stroke="#c9ced6" stroke-width="1" opacity="1"/><line transform="translate(388,0)" x2="0" y2="5" stroke="#c9ced6" stroke-width="1" opacity="1"/><line transform="translate(424,0)" x2="0" y2="5" stroke="#c9ced6" stroke-width="1" opacity="1"/><line transform="translate(459,0)" x2="0" y2="5" stroke="#c9ced6" stroke-width="1" opacity="1"/><line transform="translate(494,0)" x2="0" y2="5" stroke="#c9ced6" stroke-width="1" opacity="1"/><line transform="translate(529,0)" x2="0" y2="5" stroke="#c9ced6" stroke-width="1" opacity="1"/><line transform="translate(565,0)" x2="0" y2="5" stroke="#c9ced6" stroke-width="1" opacity="1"/><line transform="translate(600,0)" x2="0" y2="5" stroke="#c9ced6" stroke-width="1" opacity="1"/></g><g class="mark-text role-axis-label" pointer-events="none"><text text-anchor="start" transform="translate(0,20)" font-family="Inter" font-size="11px" fill="#5f6b7a" opacity="1">180</text><text text-anchor="middle" transform="translate(35.294117647058826,20)" font-family="Inter" font-size="11px" fill="#5f6b7a" opacity="1">190</text><text text-anchor="middle" transform="translate(70.58823529411765,20)" font-family="Inter" font-size="11px" fill="#5f6b7a" opacity="1">200</text><text text-anchor="middle" transform="translate(105.88235294117648,20)" font-family="Inter" font-size="11px" fill="#5f6b7a" opacity="1">210</text><text text-anchor="middle" transform="translate(141.1764705882353,20)" font-family="Inter" font-size="11px" fill="#5f6b7a" opacity="1">220</text><text text-anchor="middle" transform="translate(176.47058823529412,20)" font-family="Inter" font-size="11px" fill="#5f6b7a" opacity="1">230</text><text text-anchor="middle" transform="translate(211.76470588235296,20)" font-family="Inter" font-size="11px" fill="#5f6b7a" opacity="1">240</text><text text-anchor="middle" transform="translate(247.05882352941174,20)" font-family="Inter" font-size="11px" fill="#5f6b7a" opacity="1">250</text><text text-anchor="middle" transform="translate(282.3529411764706,20)" font-family="Inter" font-size="11px" fill="#5f6b7a" opacity="1">260</text><text text-anchor="middle" transform="translate(317.6470588235294,20)" font-family="Inter" font-size="11px" fill="#5f6b7a" opacity="1">270</text><text text-anchor="middle" transform="translate(352.94117647058823,20)" font-family="Inter" font-size="11px" fill="#5f6b7a" opacity="1">280</text><text text-anchor="middle" transform="translate(388.2352941176471,20)" font-family="Inter" font-size="11px" fill="#5f6b7a" opacity="1">290</text><text text-anchor="middle" transform="translate(423.5294117647059,20)" font-family="Inter" font-size="11px" fill="#5f6b7a" opacity="1">300</text><text text-anchor="middle" transform="translate(458.8235294117647,20)" font-family="Inter" font-size="11px" fill="#5f6b7a" opacity="1">310</text><text text-anchor="middle" transform="translate(494.1176470588235,20)" font-family="Inter" font-size="11px" fill="#5f6b7a" opacity="1">320</text><text text-anchor="middle" transform="translate(529.4117647058823,20)" font-family="Inter" font-size="11px" fill="#5f6b7a" opacity="1">330</text><text text-anchor="middle" transform="translate(564.7058823529412,20)" font-family="Inter" font-size="11px" fill="#5f6b7a" opacity="1">340</text><text text-anchor="end" transform="translate(600,20)" font-family="Inter" font-size="11px" fill="#5f6b7a" opacity="1">350</text></g><g class="mark-rule role-axis-domain" pointer-events="none"><line transform="translate(0,0)" x2="600" y2="0" stroke="#c9ced6" stroke-width="1" opacity="1"/></g><g class="mark-text role-axis-title" pointer-events="none"><text text-anchor="middle" transform="translate(300,41)" font-family="Inter" font-size="12px" font-weight="600" fill="#1c1e21" opacity="1">Response ms</text></g></g><path class="foreground" aria-hidden="true" d="" pointer-events="none" display="none"/></g></g><g class="mark-group role-axis" role="graphics-symbol" aria-roledescription="axis" aria-label="Y-axis titled 'Count' for a linear scale with values from 0 to 22"><g transform="translate(0.5,0.5)"><path class="background" aria-hidden="true" d="M0,0h0v0h0Z" pointer-events="none"/><g><g class="mark-text role-axis-label" pointer-events="none"><text text-anchor="end" transform="translate(-6,383)" font-family="Inter" font-size="11px" fill="#5f6b7a" opacity="1">0</text><text text-anchor="end" transform="translate(-6,348.45454545454544)" font-family="Inter" font-size="11px" fill="#5f6b7a" opacity="1">2</text><text text-anchor="end" transform="translate(-6,313.9090909090909)" font-family="Inter" font-size="11px" fill="#5f6b7a" opacity="1">4</text><text text-anchor="end" transform="translate(-6,279.3636363636364)" font-family="Inter" font-size="11px" fill="#5f6b7a" opacity="1">6</text><text text-anchor="end" transform="translate(-6,244.8181818181818)" font-family="Inter" font-size="11px" fill="#5f6b7a" opacity="1">8</text><text text-anchor="end" transform="translate(-6,210.27272727272725)" font-family="Inter" font-size="11px" fill="#5f6b7a" opacity="1">10</text><text text-anchor="end" transform="translate(-6,175.72727272727275)" font-family="Inter" font-size="11px" fill="#5f6b7a" opacity="1">12</text><text text-anchor="end" transform="translate(-6,141.1818181818182)" font-family="Inter" font-size="11px" fill="#5f6b7a" opacity="1">14</text><text text-anchor="end" transform="translate(-6,106.63636363636363)" font-family="Inter" font-size="11px" fill="#5f6b7a" opacity="1">16</text><text text-anchor="end" transform="translate(-6,72.09090909090907)" font-family="Inter" font-size="11px" fill="#5f6b7a" opacity="1">18</text><text text-anchor="end" transform="translate(-6,37.545454545454554)" font-family="Inter" font-size="11px" fill="#5f6b7a" opacity="1">20</text><text text-anchor="end" transform="translate(-6,3)" font-family="Inter" font-size="11px" fill="#5f6b7a" opacity="1">22</text></g><g class="mark-text role-axis-title" pointer-events="none"><text text-anchor="middle" transform="translate(-29.64794921875,190) rotate(-90) translate(0,-3)" font-family="Inter" font-size="12px" font-weight="600" fill="#1c1e21" opacity="1">Count</text></g></g><path class="foreground" aria-hidden="true" d="" pointer-events="none" display="none"/></g></g><g class="mark-rect role-mark marks" role="graphics-object" aria-roledescription="rect mark container"><path aria-label="Response ms: 180 – 190; Count: 1" role="graphics-symbol" aria-roledescription="bar" d="M3,362.72727272727275L33.294117647058826,362.72727272727275C34.39794769604683,362.72727272727275,35.294117647058826,363.62344267828473,35.294117647058826,364.72727272727275L35.294117647058826,380C35.294117647058826,380,35.294117647058826,380,35.294117647058826,380L1,380C1,380,1,380,1,380L1,364.72727272727275C1,363.62344267828473,1.896169951012,362.72727272727275,3,362.72727272727275Z" fill="#0072B2"/><path aria-label="Response ms: 270 – 280; Count: 19" role="graphics-symbol" aria-roledescription="bar" d="M320.6470588235294,51.81818181818181L350.94117647058823,51.81818181818181C352.04500651957625,51.81818181818181,352.94117647058823,52.71435176919381,352.94117647058823,53.81818181818181L352.94117647058823,380C352.94117647058823,380,352.94117647058823,380,352.94117647058823,380L318.6470588235294,380C318.6470588235294,380,318.6470588235294,380,318.6470588235294,380L318.6470588235294,53.81818181818181C318.6470588235294,52.71435176919381,319.5432287745414,51.81818181818181,320.6470588235294,51.81818181818181Z" fill="#0072B2"/><path aria-label="Response ms: 240 – 250; Count: 13" role="graphics-symbol" aria-roledescription="bar" d="M214.76470588235296,155.45454545454544L245.05882352941174,155.45454545454544C246.16265357839973,155.45454545454544,247.05882352941174,156.35071540555745,247.05882352941174,157.45454545454544L247.05882352941174,380C247.05882352941174,380,247.05882352941174,380,247.05882352941174,380L212.76470588235296,380C212.76470588235296,380,212.76470588235296,380,212.76470588235296,380L212.76470588235296,157.45454545454544C212.76470588235296,156.35071540555745,213.66087583336497,155.45454545454544,214.76470588235296,155.45454545454544Z" fill="#0072B2"/><path aria-label="Response ms: 300 – 310; Count: 14" role="graphics-symbol" aria-roledescription="bar" d="M426.5294117647059,138.1818181818182L456.8235294117647,138.1818181818182C457.9273594607527,138.1818181818182,458.8235294117647,139.0779881328302,458.8235294117647,140.1818181818182L458.8235294117647,380C458.8235294117647,380,458.8235294117647,380,458.8235294117647,380L424.5294117647059,380C424.5294117647059,380,424.5294117647059,380,424.5294117647059,380L424.5294117647059,140.1818181818182C424.5294117647059,139.0779881328302,425.4255817157179,138.1818181818182,426.5294117647059,138.1818181818182Z" fill="#0072B2"/><path aria-label="Response ms: 330 – 340; Count: 8" role="graphics-symbol" aria-roledescription="bar" d="M532.4117647058823,241.8181818181818L562.7058823529412,241.8181818181818C563.8097124019292,241.8181818181818,564.7058823529412,242.71435176919383,564.7058823529412,243.8181818181818L564.7058823529412,380C564.7058823529412,380,564.7058823529412,380,564.7058823529412,380L530.4117647058823,380C530.4117647058823,380,530.4117647058823,380,530.4117647058823,380L530.4117647058823,243.8181818181818C530.4117647058823,242.71435176919383,531.3079346568943,241.8181818181818,532.4117647058823,241.8181818181818Z" fill="#0072B2"/><path aria-label="Response ms: 230 – 240; Count: 8" role="graphics-symbol" aria-roledescription="bar" d="M179.47058823529412,241.8181818181818L209.76470588235296,241.8181818181818C210.86853593134094,241.8181818181818,211.76470588235296,242.71435176919383,211.76470588235296,243.8181818181818L211.76470588235296,380C211.76470588235296,380,211.76470588235296,380,211.76470588235296,380L177.47058823529412,380C177.47058823529412,380,177.47058823529412,380,177.47058823529412,380L177.47058823529412,243.8181818181818C177.47058823529412,242.71435176919383,178.36675818630613,241.8181818181818,179.47058823529412,241.8181818181818Z" fill="#0072B2"/><path aria-label="Response ms: 290 – 300; Count: 22" role="graphics-symbol" aria-roledescription="bar" d="M391.2352941176471,0L421.5294117647059,0C422.6332418136939,0,423.5294117647059,0.896169951012,423.5294117647059,2L423.5294117647059,380C423.5294117647059,380,423.5294117647059,380,423.5294117647059,380L389.2352941176471,380C389.2352941176471,380,389.2352941176471,380,389.2352941176471,380L389.2352941176471,2C389.2352941176471,0.896169951012,390.13146406865906,0,391.2352941176471,0Z" fill="#0072B2"/><path aria-label="Response ms: 260 – 270; Count: 16" role="graphics-symbol" aria-roledescription="bar" d="M285.3529411764706,103.63636363636363L315.6470588235294,103.63636363636363C316.7508888725174,103.63636363636363,317.6470588235294,104.53253358737562,317.6470588235294,105.63636363636363L317.6470588235294,380C317.6470588235294,380,317.6470588235294,380,317.6470588235294,380L283.3529411764706,380C283.3529411764706,380,283.3529411764706,380,283.3529411764706,380L283.3529411764706,105.63636363636363C283.3529411764706,104.53253358737562,284.2491111274826,103.63636363636363,285.3529411764706,103.63636363636363Z" fill="#0072B2"/><path aria-label="Response ms: 280 – 290; Count: 10" role="graphics-symbol" aria-roledescription="bar" d="M355.94117647058823,207.27272727272725L386.2352941176471,207.27272727272725C387.3391241666351,207.27272727272725,388.2352941176471,208.16889722373926,388.2352941176471,209.27272727272725L388.2352941176471,380C388.2352941176471,380,388.2352941176471,380,388.2352941176471,380L353.94117647058823,380C353.94117647058823,380,353.94117647058823,380,353.94117647058823,380L353.94117647058823,209.27272727272725C353.94117647058823,208.16889722373926,354.8373464216002,207.27272727272725,355.94117647058823,207.27272727272725Z" fill="#0072B2"/><path aria-label="Response ms: 220 – 230; Count: 6" role="graphics-symbol" aria-roledescription="bar" d="M144.1764705882353,276.3636363636364L174.47058823529412,276.3636363636364C175.5744182842821,276.3636363636364,176.47058823529412,277.25980631464836,176.47058823529412,278.3636363636364L176.47058823529412,380C176.47058823529412,380,176.47058823529412,380,176.47058823529412,380L142.1764705882353,380C142.1764705882353,380,142.1764705882353,380,142.1764705882353,380L142.1764705882353,278.3636363636364C142.1764705882353,277.25980631464836,143.07264053924732,276.3636363636364,144.1764705882353,276.3636363636364Z" fill="#0072B2"/><path aria-label="Response ms: 310 – 320; Count: 14" role="graphics-symbol" aria-roledescription="bar" d="M461.8235294117647,138.1818181818182L492.1176470588235,138.1818181818182C493.2214771078115,138.1818181818182,494.1176470588235,139.0779881328302,494.1176470588235,140.1818181818182L494.1176470588235,380C494.1176470588235,380,494.1176470588235,380,494.1176470588235,380L459.8235294117647,380C459.8235294117647,380,459.8235294117647,380,459.8235294117647,380L459.8235294117647,140.1818181818182C459.8235294117647,139.0779881328302,460.7196993627767,138.1818181818182,461.8235294117647,138.1818181818182Z" fill="#0072B2"/><path aria-label="Response ms: 250 – 260; Count: 11" role="graphics-symbol" aria-roledescription="bar" d="M250.05882352941174,190L280.3529411764706,190C281.4567712254586,190,282.3529411764706,190.896169951012,282.3529411764706,192L282.3529411764706,380C282.3529411764706,380,282.3529411764706,380,282.3529411764706,380L248.05882352941174,380C248.05882352941174,380,248.05882352941174,380,248.05882352941174,380L248.05882352941174,192C248.05882352941174,190.896169951012,248.95499348042375,190,250.05882352941174,190Z" fill="#0072B2"/><path aria-label="Response ms: 320 – 330; Count: 8" role="graphics-symbol" aria-roledescription="bar" d="M497.1176470588235,241.8181818181818L527.4117647058823,241.8181818181818C528.5155947548703,241.8181818181818,529.4117647058823,242.71435176919383,529.4117647058823,243.8181818181818L529.4117647058823,380C529.4117647058823,380,529.4117647058823,380,529.4117647058823,380L495.1176470588235,380C495.1176470588235,380,495.1176470588235,380,495.1176470588235,380L495.1176470588235,243.8181818181818C495.1176470588235,242.71435176919383,496.01381700983546,241.8181818181818,497.1176470588235,241.8181818181818Z" fill="#0072B2"/><path aria-label="Response ms: 190 – 200; Count: 1" role="graphics-symbol" aria-roledescription="bar" d="M38.294117647058826,362.72727272727275L68.58823529411765,362.72727272727275C69.69206534310565,362.72727272727275,70.58823529411765,363.62344267828473,70.58823529411765,364.72727272727275L70.58823529411765,380C70.58823529411765,380,70.58823529411765,380,70.58823529411765,380L36.294117647058826,380C36.294117647058826,380,36.294117647058826,380,36.294117647058826,380L36.294117647058826,364.72727272727275C36.294117647058826,363.62344267828473,37.190287598070825,362.72727272727275,38.294117647058826,362.72727272727275Z" fill="#0072B2"/><path aria-label="Response ms: 210 – 220; Count: 5" role="graphics-symbol" aria-roledescription="bar" d="M108.88235294117648,293.6363636363636L139.1764705882353,293.6363636363636C140.2803006372233,293.6363636363636,141.1764705882353,294.5325335873756,141.1764705882353,295.6363636363636L141.1764705882353,380C141.1764705882353,380,141.1764705882353,380,141.1764705882353,380L106.88235294117648,380C106.88235294117648,380,106.88235294117648,380,106.88235294117648,380L106.88235294117648,295.6363636363636C106.88235294117648,294.5325335873756,107.77852289218848,293.6363636363636,108.88235294117648,293.6363636363636Z" fill="#0072B2"/><path aria-label="Response ms: 340 – 350; Count: 3" role="graphics-symbol" aria-roledescription="bar" d="M567.7058823529412,328.1818181818182L598,328.1818181818182C599.103830048988,328.1818181818182,600,329.07798813283017,600,330.1818181818182L600,380C600,380,600,380,600,380L565.7058823529412,380C565.7058823529412,380,565.7058823529412,380,565.7058823529412,380L565.7058823529412,330.1818181818182C565.7058823529412,329.07798813283017,566.6020523039532,328.1818181818182,567.7058823529412,328.1818181818182Z" fill="#0072B2"/><path aria-label="Response ms: 200 – 210; Count: 1" role="graphics-symbol" aria-roledescription="bar" d="M73.58823529411765,362.72727272727275L103.88235294117648,362.72727272727275C104.98618299016448,362.72727272727275,105.88235294117648,363.62344267828473,105.88235294117648,364.72727272727275L105.88235294117648,380C105.88235294117648,380,105.88235294117648,380,105.88235294117648,380L71.58823529411765,380C71.58823529411765,380,71.58823529411765,380,71.58823529411765,380L71.58823529411765,364.72727272727275C71.58823529411765,363.62344267828473,72.48440524512965,362.72727272727275,73.58823529411765,362.72727272727275Z" fill="#0072B2"/></g><g class="mark-group role-title"><g transform="translate(-42.64794921875,-55)"><path class="background" aria-hidden="true" d="M0,0h0v0h0Z" pointer-events="none"/><g><g class="mark-text role-title-text" role="graphics-symbol" aria-roledescription="title" aria-label="Title text 'Response time distribution'" pointer-events="none"><text text-anchor="start" transform="translate(0,13)" font-family="Inter" font-size="16px" font-weight="700" fill="#1c1e21" opacity="1">Response time distribution</text></g><g class="mark-text role-title-subtitle" role="graphics-symbol" aria-roledescription="subtitle" aria-label="Subtitle text 'Requests by latency bucket (ms)'" pointer-events="none"><text text-anchor="start" transform="translate(0,32)" font-family="Inter" font-size="13px" font-weight="400" fill="#5f6b7a" opacity="1">Requests by latency bucket (ms)</text></g></g><path class="foreground" aria-hidden="true" d="" pointer-events="none" display="none"/></g></g></g><path class="foreground" aria-hidden="true" d="" display="none"/></g></g></g></svg>