<svg xmlns="http://www.w3.org/2000/svg" xmlns:xlink="http://www.w3.org/1999/xlink" version="1.1" class="marks" width="719" height="465" viewBox="0 0 719 465"><rect width="719" height="465" fill="#ffffff"/><g fill="none" stroke-miterlimit="10" transform="translate(67,77)"><g class="mark-group role-frame root" role="graphics-object" aria-roledescription="group mark container"><g transform="translate(0,0)"><path class="background" aria-hidden="true" d="M0,0h600v380h-600Z"/><g><g class="mark-group role-axis" role="graphics-symbol" aria-roledescription="axis" aria-label="Y-axis for a discrete scale with 6 values: Brazil, India, Germany, Kenya, Japan, Canada"><g transform="translate(0.5,0.5)"><path class="background" aria-hidden="true" d="M0,0h0v0h0Z" pointer-events="none"/><g><g class="mark-rule role-axis-tick" pointer-events="none"><line transform="translate(0,31)" x2="-5" y2="0" stroke="#c9ced6" stroke-width="1" opacity="1"/><line transform="translate(0,95)" x2="-5" y2="0" stroke="#c9ced6" stroke-width="1" opacity="1"/><line transform="translate(0,158)" x2="-5" y2="0" stroke="#c9ced6" stroke-width="1" opacity="1"/><line transform="translate(0,221)" x2="-5" y2="0" stroke="#c9ced6" stroke-width="1" opacity="1"/><line transform="translate(0,285)" x2="-5" y2="0" stroke="#c9ced6" stroke-width="1" opacity="1"/><line transform="translate(0,348)" x2="-5" y2="0" stroke="#c9ced6" stroke-width="1" opacity="1"/></g><g class="mark-text role-axis-label" pointer-events="none"><text text-anchor="end" transform="translate(-11,34.16666666666667)" font-family="Inter" font-size="11px" fill="#5f6b7a" opacity="1">Brazil</text><text text-anchor="end" transform="translate(-11,97.5)" font-family="Inter" font-size="11px" fill="#5f6b7a" opacity="1">India</text><text text-anchor="end" transform="translate(-11,160.83333333333334)" font-family="Inter" font-size="11px" fill="#5f6b7a" opacity="1">Germany</text><text text-anchor="end" transform="translate(-11,224.16666666666666)" font-family="Inter" font-size="11px" fill="#5f6b7a" opacity="1">Kenya</text><text text-anchor="end" transform="translate(-11,287.5)" font-family="Inter" font-size="11px" fill="#5f6b7a" opacity="1">Japan</text><text text-anchor="end" transform="translate(-11,350.83333333333337)" font-family="Inter" font-size="11px" fill="#5f6b7a" opacity="1">Canada</text></g><g class="mark-rule role-axis-domain" pointer-events="none"><line transform="translate(0,0)" x2="0" y2="380" stroke="#c9ced6" stroke-width="1" opacity="1"/></g></g><path class="foreground" aria-hidden="true" d="" pointer-events="none" display="none"/></g></g><g class="mark-rule role-mark layer_0_marks" role="graphics-object" aria-roledescription="rule mark container"><line aria-label="v1: 40; category: Brazil; v2: 61" role="graphics-symbol" aria-roledescription="rule mark" transform="translate(180,31.666666666666668)" x2="252" y2="0" stroke="#cdd3db" stroke-width="2.5"/><line aria-label="v1: 33; category: India; v2: 52" role="graphics-symbol" aria-roledescription="rule mark" transform="translate(96,95)" x2="228" y2="0" stroke="#cdd3db" stroke-width="2.5"/><line aria-label="v1: 62; category: Germany; v2: 71" role="graphics-symbol" aria-roledescription="rule mark" transform="translate(444,158.33333333333334)" x2="108" y2="0" stroke="#cdd3db" stroke-width="2.5"/><line aria-label="v1: 28; category: Kenya; v2: 35" role="graphics-symbol" aria-roledescription="rule mark" transform="translate(36,221.66666666666666)" x2="84" y2="0" stroke="#cdd3db" stroke-width="2.5"/><line aria-label="v1: 55; category: Japan; v2: 58" role="graphics-symbol" aria-roledescription="rule mark" transform="translate(360,285)" x2="36" y2="0" stroke="#cdd3db" stroke-width="2.5"/><line aria-label="v1: 70; category: Canada; v2: 68" role="graphics-symbol" aria-roledescription="rule mark" transform="translate(540,348.33333333333337)" x2="-24" y2="0" stroke="#cdd3db" stroke-width="2.5"/></g><g class="mark-symbol role-mark layer_1_marks" role="graphics-object" aria-roledescription="symbol mark container"><path aria-label="Score: 40; category: Brazil; group: 2019" role="graphics-symbol" aria-roledescription="point" transform="translate(180,31.666666666666668)" d="M5.701,0A5.701,5.701,0,1,1,-5.701,0A5.701,5.701,0,1,1,5.701,0" fill="#0072B2" stroke-width="2" opacity="1"/><path aria-label="Score: 61; category: Brazil; group: 2024" role="graphics-symbol" aria-roledescription="point" transform="translate(432,31.666666666666668)" d="M5.701,0A5.701,5.701,0,1,1,-5.701,0A5.701,5.701,0,1,1,5.701,0" fill="#E69F00" stroke-width="2" opacity="1"/><path aria-label="Score: 33; category: India; group: 2019" role="graphics-symbol" aria-roledescription="point" transform="translate(96,95)" d="M5.701,0A5.701,5.701,0,1,1,-5.701,0A5.701,5.701,0,1,1,5.701,0" fill="#0072B2" stroke-width="2" opacity="1"/><path aria-label="Score: 52; category: India; group: 2024" role="graphics-symbol" aria-roledescription="point" transform="translate(324,95)" d="M5.701,0A5.701,5.701,0,1,1,-5.701,0A5.701,5.701,0,1,1,5.701,0" fill="#E69F00" stroke-width="2" opacity="1"/><path aria-label="Score: 62; category: Germany; group: 2019" role="graphics-symbol" aria-roledescription="point" transform="translate(444,158.33333333333334)" d="M5.701,0A5.701,5.701,0,1,1,-5.701,0A5.701,5.701,0,1,1,5.701,0" fill="#0072B2" stroke-width="2" opacity="1"/><path aria-label="Score: 71; category: Germany; group: 2024" role="graphics-symbol" aria-roledescription="point" transform="translate(552,158.33333333333334)" d="M5.701,0A5.701,5.701,0,1,1,-5.701,0A5.701,5.701,0,1,1,5.701,0" fill="#E69F00" stroke-width="2" opacity="1"/><path aria-label="Score: 28; category: Kenya; group: 2019" role="graphics-symbol" aria-roledescription="point" transform="translate(36,221.66666666666666)" d="M5.701,0A5.701,5.701,0,1,1,-5.701,0A5.701,5.701,0,1,1,5.701,0" fill="#0072B2" stroke-width="2" opacity="1"/><path aria-label="Score: 35; category: Kenya; group: 2024" role="graphics-symbol" aria-roledescription="point" transform="translate(120,221.66666666666666)" d="M5.701,0A5.701,5.701,0,1,1,-5.701,0A5.701,5.701,0,1,1,5.701,0" fill="#E69F00" stroke-width="2" opacity="1"/><path aria-label="Score: 55; category: Japan; group: 2019" role="graphics-symbol" aria-roledescription="point" transform="translate(360,285)" d="M5.701,0A5.701,5.701,0,1,1,-5.701,0A5.701,5.701,0,1,1,5.701,0" fill="#0072B2" stroke-width="2" opacity="1"/><path aria-label="Score: 58; category: Japan; group: 2024" role="graphics-symbol" aria-roledescription="point" transform="translate(396,285)" d="M5.701,0A5.701,5.701,0,1,1,-5.701,0A5.701,5.701,0,1,1,5.701,0" fill="#E69F00" stroke-width="2" opacity="1"/><path aria-label="Score: 70; category: Canada; group: 2019" role="graphics-symbol" aria-roledescription="point" transform="translate(540,348.33333333333337)" d="M5.701,0A5.701,5.701,0,1,1,-5.701,0A5.701,5.701,0,1,1,5.701,0" fill="#0072B2" stroke-width="2" opacity="1"/><path aria-label="Score: 68; category: Canada; group: 2024" role="graphics-symbol" aria-roledescription="point" transform="translate(516,348.33333333333337)" d="M5.701,0A5.701,5.701,0,1,1,-5.701,0A5.701,5.701,0,1,1,5.701,0" fill="#E69F00" stroke-width="2" opacity="1"/></g><g class="mark-text role-mark layer_2_marks" role="graphics-object" aria-roledescription="text mark container"><text aria-label="value: 61; category: Brazil" role="graphics-symbol" aria-roledescription="text mark" text-anchor="start" transform="translate(441,34.66666666666667)" font-family="Inter" font-size="11px" font-weight="500" fill="#1c1e21">61</text><text aria-label="value: 52; category: India" role="graphics-symbol" aria-roledescription="text mark" text-anchor="start" transform="translate(333,98)" font-family="Inter" font-size="11px" font-weight="500" fill="#1c1e21">52</text><text aria-label="value: 71; category: Germany" role="graphics-symbol" aria-roledescription="text mark" text-anchor="start" transform="translate(561,161.33333333333334)" font-family="Inter" font-size="11px" font-weight="500" fill="#1c1e21">71</text><text aria-label="value: 35; category: Kenya" role="graphics-symbol" aria-roledescription="text mark" text-anchor="start" transform="translate(129,224.66666666666666)" font-family="Inter" font-size="11px" font-weight="500" fill="#1c1e21">35</text><text aria-label="value: 58; category: Japan" role="graphics-symbol" aria-roledescription="text mark" text-anchor="start" transform="translate(405,288)" font-family="Inter" font-size="11px" font-weight="500" fill="#1c1e21">58</text><text aria-label="value: 70; category: Canada" role="graphics-symbol" aria-roledescription="text mark" text-anchor="start" transform="translate(549,351.33333333333337)" font-family="Inter" font-size="11px" font-weight="500" fill="#1c1e21">70</text></g><g class="mark-text role-mark layer_3_marks" role="graphics-object" aria-roledescription="text mark container"><text aria-label="value: 40; category: Brazil" role="graphics-symbol" aria-roledescription="text mark" text-anchor="end" transform="translate(171,34.66666666666667)" font-family="Inter" font-size="11px" font-weight="500" fill="#1c1e21">40</text><text aria-label="value: 33; category: India" role="graphics-symbol" aria-roledescription="text mark" text-anchor="end" transform="translate(87,98)" font-family="Inter" font-size="11px" font-weight="500" fill="#1c1e21">33</text><text aria-label="value: 62; category: Germany" role="graphics-symbol" aria-roledescription="text mark" text-anchor="end" transform="translate(435,161.33333333333334)" font-family="Inter" font-size="11px" font-weight="500" fill="#1c1e21">62</text><text aria-label="value: 28; category: Kenya" role="graphics-symbol" aria-roledescription="text mark" text-anchor="end" transform="translate(27,224.66666666666666)" font-family="Inter" font-size="11px" font-weight="500" fill="#1c1e21">28</text><text aria-label="value: 55; category: Japan" role="graphics-symbol" aria-roledescription="text mark" text-anchor="end" transform="translate(351,288)" font-family="Inter" font-size="11px" font-weight="500" fill="#1c1e21">55</text><text aria-label="value: 68; category: Canada" role="graphics-symbol" aria-roledescription="text mark" text-anchor="end" transform="translate(507,351.33333333333337)" font-family="Inter" font-size="11px" font-weight="500" fill="#1c1e21">68</text></g><g class="mark-group role-legend" role="graphics-symbol" aria-roledescription="legend" aria-label="Symbol legend for fill color with 2 values: 2019, 2024"><g transform="translate(0,-20)"><path class="background" aria-hidden="true" d="M0,0h100v12h-100Z" pointer-events="none"/><g><g class="mark-group role-legend-entry"><g transform="translate(0,0)"><path class="background" aria-hidden="true" d="M0,0h0v0h0Z" pointer-events="none"/><g><g class="mark-group role-scope" role="graphics-object" aria-roledescription="group mark container"><g transform="translate(0,0)"><path class="background" aria-hidden="true" d="M0,0h43.2109375v12h-43.2109375Z" pointer-events="none" opacity="1"/><g><g class="mark-symbol role-legend-symbol" pointer-events="none"><path transform="translate(6,6)" d="M4.743,0A4.743,4.743,0,1,1,-4.743,0A4.743,4.743,0,1,1,4.743,0" fill="#0072B2" stroke-width="1.5" opacity="1"/></g><g class="mark-text role-legend-label" pointer-events="none"><text text-anchor="start" transform="translate(16,10)" font-family="Inter" font-size="12px" fill="#1c1e21" opacity="1">2019</text></g></g><path class="foreground" aria-hidden="true" d="" pointer-events="none" display="none"/></g><g transform="translate(54,0)"><path class="background" aria-hidden="true" d="M0,0h45.583984375v12h-45.583984375Z" pointer-events="none" opacity="1"/><g><g class="mark-symbol role-legend-symbol" pointer-events="none"><path transform="translate(6,6)" d="M4.743,0A4.743,4.743,0,1,1,-4.743,0A4.743,4.743,0,1,1,4.743,0" fill="#E69F00" stroke-width="1.5" opacity="1"/></g><g class="mark-text role-legend-label" pointer-events="none"><text text-anchor="start" transform="translate(16,10)" font-family="Inter" font-size="12px" fill="#1c1e21" opacity="1">2024</text></g></g><path class="foreground" aria-hidden="true" d="" pointer-events="none" display="none"/></g></g></g><path class="foreground" aria-hidden="true" d="" pointer-events="none" display="none"/></g></g></g><path class="foreground" aria-hidden="true" d="" pointer-events="none" display="none"/></g></g><g class="mark-group role-title"><g transform="translate(-58.265625,-69)"><path class="background" aria-hidden="true" d="M0,0h0v0h0Z" pointer-events="none"/><g><g class="mark-text role-title-text" role="graphics-symbol" aria-roledescription="title" aria-label="Title text 'Index score, 2019 → 2024'" pointer-events="none"><text text-anchor="start" transform="translate(0,13)" font-family="Inter" font-size="16px" font-weight="700" fill="#1c1e21" opacity="1">Index score, 2019 → 2024</text></g><g class="mark-text role-title-subtitle" role="graphics-symbol" aria-roledescription="subtitle" aria-label="Subtitle text 'Sorted by size of change'" pointer-events="none"><text text-anchor="start" transform="translate(0,32)" font-family="Inter" font-size="13px" font-weight="400" fill="#5f6b7a" opacity="1">Sorted by size of change</text></g></g><path class="foreground" aria-hidden="true" d="" pointer-events="none" display="none"/></g></g></g><path class="foreground" aria-hidden="true" d="" display="none"/></g></g></g></svg>