<svg xmlns="http://www.w3.org/2000/svg" xmlns:xlink="http://www.w3.org/1999/xlink" version="1.1" class="marks" width="892" height="465" viewBox="0 0 892 465"><rect width="892" height="465" fill="#ffffff"/><g fill="none" stroke-miterlimit="10" transform="translate(18,67)"><g class="mark-group role-frame root" role="graphics-object" aria-roledescription="group mark container"><g transform="translate(0,0)"><path class="background" aria-hidden="true" d="M0,0h600v380h-600Z"/><g><g class="mark-arc role-mark marks" role="graphics-object" aria-roledescription="arc mark container"><path aria-label="v: 42; c: Direct" role="graphics-symbol" aria-roledescription="arc mark" transform="translate(300,190)" d="M91.05,165.62A1,1,0,0,0,92.413,166.012A190,190,0,0,0,1.005,-189.997A1,1,0,0,0,0,-188.997L0,-70.993A1,1,0,0,0,0.986,-69.993A70,70,0,0,1,34.583,60.86A1,1,0,0,0,34.201,62.212Z" fill="#0072B2"/><path aria-label="v: 31; c: Search" role="graphics-symbol" aria-roledescription="arc mark" transform="translate(300,190)" d="M-171.01,-80.471A1,1,0,0,0,-172.343,-79.987A190,190,0,0,0,-12.933,189.559A1,1,0,0,0,-11.867,188.624L-4.458,70.853A1,1,0,0,0,-5.379,69.793A70,70,0,0,1,-63.751,-28.91A1,1,0,0,0,-64.236,-30.227Z" fill="#009E73"/><path aria-label="v: 18; c: Social" role="graphics-symbol" aria-roledescription="arc mark" transform="translate(300,190)" d="M0,-188.997A1,1,0,0,0,-1.005,-189.997A190,190,0,0,0,-171.487,-81.807A1,1,0,0,0,-171.01,-80.471L-64.236,-30.227A1,1,0,0,0,-62.912,-30.694A70,70,0,0,1,-0.986,-69.993A1,1,0,0,0,0,-70.993Z" fill="#D55E00"/><path aria-label="v: 9; c: Referral" role="graphics-symbol" aria-roledescription="arc mark" transform="translate(300,190)" d="M-11.867,188.624A1,1,0,0,0,-10.927,189.686A190,190,0,0,0,90.651,166.98A1,1,0,0,0,91.05,165.62L34.201,62.212A1,1,0,0,0,32.855,61.81A70,70,0,0,1,-3.411,69.917A1,1,0,0,0,-4.458,70.853Z" fill="#E69F00"/></g><g class="mark-group role-legend" role="graphics-symbol" aria-roledescription="legend" aria-label="Symbol legend for fill color with 4 values: Direct, Referral, Search, Social"><g transform="translate(608,0)"><path class="background" aria-hidden="true" d="M0,0h248v12h-248Z" pointer-events="none"/><g><g class="mark-group role-legend-entry"><g transform="translate(0,0)"><path class="background" aria-hidden="true" d="M0,0h0v0h0Z" pointer-events="none"/><g><g class="mark-group role-scope" role="graphics-object" aria-roledescription="group mark container"><g transform="translate(0,0)"><path class="background" aria-hidden="true" d="M0,0h49.662109375v12h-49.662109375Z" pointer-events="none" opacity="1"/><g><g class="mark-symbol role-legend-symbol" pointer-events="none"><path transform="translate(6,6)" d="M4.743,0A4.743,4.743,0,1,1,-4.743,0A4.743,4.743,0,1,1,4.743,0" fill="#0072B2" stroke-width="1.5" opacity="1"/></g><g class="mark-text role-legend-label" pointer-events="none"><text text-anchor="start" transform="translate(16,10)" font-family="Inter" font-size="12px" fill="#1c1e21" opacity="1">Direct</text></g></g><path class="foreground" aria-hidden="true" d="" pointer-events="none" display="none"/></g><g transform="translate(60,0)"><path class="background" aria-hidden="true" d="M0,0h60.49609375v12h-60.49609375Z" pointer-events="none" opacity="1"/><g><g class="mark-symbol role-legend-symbol" pointer-events="none"><path transform="translate(6,6)" d="M4.743,0A4.743,4.743,0,1,1,-4.743,0A4.743,4.743,0,1,1,4.743,0" fill="#E69F00" stroke-width="1.5" opacity="1"/></g><g class="mark-text role-legend-label" pointer-events="none"><text text-anchor="start" transform="translate(16,10)" font-family="Inter" font-size="12px" fill="#1c1e21" opacity="1">Referral</text></g></g><path class="foreground" aria-hidden="true" d="" pointer-events="none" display="none"/></g><g transform="translate(131,0)"><path class="background" aria-hidden="true" d="M0,0h55.8203125v12h-55.8203125Z" pointer-events="none" opacity="1"/><g><g class="mark-symbol role-legend-symbol" pointer-events="none"><path transform="translate(6,6)" d="M4.743,0A4.743,4.743,0,1,1,-4.743,0A4.743,4.743,0,1,1,4.743,0" fill="#009E73" stroke-width="1.5" opacity="1"/></g><g class="mark-text role-legend-label" pointer-events="none"><text text-anchor="start" transform="translate(16,10)" font-family="Inter" font-size="12px" fill="#1c1e21" opacity="1">Search</text></g></g><path class="foreground" aria-hidden="true" d="" pointer-events="none" display="none"/></g><g transform="translate(197,0)"><path class="background" aria-hidden="true" d="M0,0h50.30078125v12h-50.30078125Z" pointer-events="none" opacity="1"/><g><g class="mark-symbol role-legend-symbol" pointer-events="none"><path transform="translate(6,6)" d="M4.743,0A4.743,4.743,0,1,1,-4.743,0A4.743,4.743,0,1,1,4.743,0" fill="#D55E00" stroke-width="1.5" opacity="1"/></g><g class="mark-text role-legend-label" pointer-events="none"><text text-anchor="start" transform="translate(16,10)" font-family="Inter" font-size="12px" fill="#1c1e21" opacity="1">Social</text></g></g><path class="foreground" aria-hidden="true" d="" pointer-events="none" display="none"/></g></g></g><path class="foreground" aria-hidden="true" d="" pointer-events="none" display="none"/></g></g></g><path class="foreground" aria-hidden="true" d="" pointer-events="none" display="none"/></g></g><g class="mark-group role-title"><g transform="translate(0,-49)"><path class="background" aria-hidden="true" d="M0,0h0v0h0Z" pointer-events="none"/><g><g class="mark-text role-title-text" role="graphics-symbol" aria-roledescription="title" aria-label="Title text 'Sessions by channel'" pointer-events="none"><text text-anchor="start" transform="translate(0,13)" font-family="Inter" font-size="16px" font-weight="700" fill="#1c1e21" opacity="1">Sessions by channel</text></g><g class="mark-text role-title-subtitle" role="graphics-symbol" aria-roledescription="subtitle" aria-label="Subtitle text 'Escape hatch: themed Vega-Lite donut'" pointer-events="none"><text text-anchor="start" transform="translate(0,32)" font-family="Inter" font-size="13px" font-weight="400" fill="#5f6b7a" opacity="1">Escape hatch: themed Vega-Lite donut</text></g></g><path class="foreground" aria-hidden="true" d="" pointer-events="none" display="none"/></g></g></g><path class="foreground" aria-hidden="true" d="" display="none"/></g></g></g></svg>