<svg xmlns="http://www.w3.org/2000/svg" xmlns:xlink="http://www.w3.org/1999/xlink" version="1.1" class="marks" width="784" height="465" viewBox="0 0 784 465"><rect width="784" height="465" fill="#ffffff"/><g fill="none" stroke-miterlimit="10" transform="translate(18,67)"><g class="mark-group role-frame root" role="graphics-object" aria-roledescription="group mark container"><g transform="translate(0,0)"><path class="background" aria-hidden="true" d="M0,0h600v380h-600Z"/><g><g class="mark-arc role-mark marks" role="graphics-object" aria-roledescription="arc mark container"><path aria-label="value: 4200; legendLabel: Direct · 31%" role="graphics-symbol" aria-roledescription="arc mark" transform="translate(300,190)" d="M174.184,73.348A1,1,0,0,0,175.496,72.81A190,190,0,0,0,1.005,-189.997A1,1,0,0,0,0,-188.997L0,-75.993A1,1,0,0,0,0.987,-74.994A75,75,0,0,1,69.499,28.195A1,1,0,0,0,70.037,29.492Z" fill="#0072B2"/><path aria-label="value: 3800; legendLabel: Organic search · 28%" role="graphics-symbol" aria-roledescription="arc mark" transform="translate(300,190)" d="M-108.203,154.959A1,1,0,0,0,-107.951,156.354A190,190,0,0,0,174.715,74.663A1,1,0,0,0,174.184,73.348L70.037,29.492A1,1,0,0,0,68.733,30.014A75,75,0,0,1,-42.125,62.052A1,1,0,0,0,-43.507,62.307Z" fill="#E69F00"/><path aria-label="value: 2100; legendLabel: Paid search · 16%" role="graphics-symbol" aria-roledescription="arc mark" transform="translate(300,190)" d="M-188.945,-4.431A1,1,0,0,0,-189.969,-3.449A190,190,0,0,0,-109.599,155.203A1,1,0,0,0,-108.203,154.959L-43.507,62.307A1,1,0,0,0,-43.744,60.922A75,75,0,0,1,-74.996,-0.771A1,1,0,0,0,-75.973,-1.781Z" fill="#009E73"/><path aria-label="value: 1500; legendLabel: Social · 11%" role="graphics-symbol" aria-roledescription="arc mark" transform="translate(300,190)" d="M-141.24,-125.583A1,1,0,0,0,-142.656,-125.497A190,190,0,0,0,-189.922,-5.459A1,1,0,0,0,-188.945,-4.431L-75.973,-1.781A1,1,0,0,0,-74.95,-2.745A75,75,0,0,1,-56.699,-49.094A1,1,0,0,0,-56.791,-50.495Z" fill="#D55E00"/><path aria-label="value: 900; legendLabel: Email · 7%" role="graphics-symbol" aria-roledescription="arc mark" transform="translate(300,190)" d="M-77.411,-172.417A1,1,0,0,0,-78.738,-172.917A190,190,0,0,0,-141.32,-126.999A1,1,0,0,0,-141.24,-125.583L-56.791,-50.495A1,1,0,0,0,-55.388,-50.569A75,75,0,0,1,-31.617,-68.01A1,1,0,0,0,-31.126,-69.326Z" fill="#56B4E9"/><path aria-label="value: 900; legendLabel: Other · 7%" role="graphics-symbol" aria-roledescription="arc mark" transform="translate(300,190)" d="M0,-188.997A1,1,0,0,0,-1.005,-189.997A190,190,0,0,0,-76.904,-173.741A1,1,0,0,0,-77.411,-172.417L-31.126,-69.326A1,1,0,0,0,-29.816,-68.818A75,75,0,0,1,-0.987,-74.994A1,1,0,0,0,0,-75.993Z" fill="#CC79A7"/></g><g class="mark-group role-legend" role="graphics-symbol" aria-roledescription="legend" aria-label="Symbol legend for fill color with 6 values: Direct · 31%, Organic search · 28%, Paid search · 16%, Social · 11%, Email · 7%, Other · 7%"><g transform="translate(608,0)"><path class="background" aria-hidden="true" d="M0,0h140v82h-140Z" pointer-events="none"/><g><g class="mark-group role-legend-entry"><g transform="translate(0,0)"><path class="background" aria-hidden="true" d="M0,0h0v0h0Z" pointer-events="none"/><g><g class="mark-group role-scope" role="graphics-object" aria-roledescription="group mark container"><g transform="translate(0,0)"><path class="background" aria-hidden="true" d="M0,0h139.005859375v12h-139.005859375Z" pointer-events="none" opacity="1"/><g><g class="mark-symbol role-legend-symbol" pointer-events="none"><path transform="translate(6,6)" d="M4.743,0A4.743,4.743,0,1,1,-4.743,0A4.743,4.743,0,1,1,4.743,0" fill="#0072B2" stroke-width="1.5" opacity="1"/></g><g class="mark-text role-legend-label" pointer-events="none"><text text-anchor="start" transform="translate(16,10)" font-family="Inter" font-size="12px" fill="#1c1e21" opacity="1">Direct · 31%</text></g></g><path class="foreground" aria-hidden="true" d="" pointer-events="none" display="none"/></g><g transform="translate(0,14)"><path class="background" aria-hidden="true" d="M0,0h139.005859375v12h-139.005859375Z" pointer-events="none" opacity="1"/><g><g class="mark-symbol role-legend-symbol" pointer-events="none"><path transform="translate(6,6)" d="M4.743,0A4.743,4.743,0,1,1,-4.743,0A4.743,4.743,0,1,1,4.743,0" fill="#E69F00" stroke-width="1.5" opacity="1"/></g><g class="mark-text role-legend-label" pointer-events="none"><text text-anchor="start" transform="translate(16,10)" font-family="Inter" font-size="12px" fill="#1c1e21" opacity="1">Organic search · 28%</text></g></g><path class="foreground" aria-hidden="true" d="" pointer-events="none" display="none"/></g><g transform="translate(0,28)"><path class="background" aria-hidden="true" d="M0,0h139.005859375v12h-139.005859375Z" pointer-events="none" opacity="1"/><g><g class="mark-symbol role-legend-symbol" pointer-events="none"><path transform="translate(6,6)" d="M4.743,0A4.743,4.743,0,1,1,-4.743,0A4.743,4.743,0,1,1,4.743,0" fill="#009E73" stroke-width="1.5" opacity="1"/></g><g class="mark-text role-legend-label" pointer-events="none"><text text-anchor="start" transform="translate(16,10)" font-family="Inter" font-size="12px" fill="#1c1e21" opacity="1">Paid search · 16%</text></g></g><path class="foreground" aria-hidden="true" d="" pointer-events="none" display="none"/></g><g transform="translate(0,42)"><path class="background" aria-hidden="true" d="M0,0h139.005859375v12h-139.005859375Z" pointer-events="none" opacity="1"/><g><g class="mark-symbol role-legend-symbol" pointer-events="none"><path transform="translate(6,6)" d="M4.743,0A4.743,4.743,0,1,1,-4.743,0A4.743,4.743,0,1,1,4.743,0" fill="#D55E00" stroke-width="1.5" opacity="1"/></g><g class="mark-text role-legend-label" pointer-events="none"><text text-anchor="start" transform="translate(16,10)" font-family="Inter" font-size="12px" fill="#1c1e21" opacity="1">Social · 11%</text></g></g><path class="foreground" aria-hidden="true" d="" pointer-events="none" display="none"/></g><g transform="translate(0,56)"><path class="background" aria-hidden="true" d="M0,0h139.005859375v12h-139.005859375Z" pointer-events="none" opacity="1"/><g><g class="mark-symbol role-legend-symbol" pointer-events="none"><path transform="translate(6,6)" d="M4.743,0A4.743,4.743,0,1,1,-4.743,0A4.743,4.743,0,1,1,4.743,0" fill="#56B4E9" stroke-width="1.5" opacity="1"/></g><g class="mark-text role-legend-label" pointer-events="none"><text text-anchor="start" transform="translate(16,10)" font-family="Inter" font-size="12px" fill="#1c1e21" opacity="1">Email · 7%</text></g></g><path class="foreground" aria-hidden="true" d="" pointer-events="none" display="none"/></g><g transform="translate(0,70)"><path class="background" aria-hidden="true" d="M0,0h139.005859375v12h-139.005859375Z" pointer-events="none" opacity="1"/><g><g class="mark-symbol role-legend-symbol" pointer-events="none"><path transform="translate(6,6)" d="M4.743,0A4.743,4.743,0,1,1,-4.743,0A4.743,4.743,0,1,1,4.743,0" fill="#CC79A7" stroke-width="1.5" opacity="1"/></g><g class="mark-text role-legend-label" pointer-events="none"><text text-anchor="start" transform="translate(16,10)" font-family="Inter" font-size="12px" fill="#1c1e21" opacity="1">Other · 7%</text></g></g><path class="foreground" aria-hidden="true" d="" pointer-events="none" display="none"/></g></g></g><path class="foreground" aria-hidden="true" d="" pointer-events="none" display="none"/></g></g></g><path class="foreground" aria-hidden="true" d="" pointer-events="none" display="none"/></g></g><g class="mark-group role-title"><g transform="translate(0,-49)"><path class="background" aria-hidden="true" d="M0,0h0v0h0Z" pointer-events="none"/><g><g class="mark-text role-title-text" role="graphics-symbol" aria-roledescription="title" aria-label="Title text 'Sessions by channel'" pointer-events="none"><text text-anchor="start" transform="translate(0,13)" font-family="Inter" font-size="16px" font-weight="700" fill="#1c1e21" opacity="1">Sessions by channel</text></g><g class="mark-text role-title-subtitle" role="graphics-symbol" aria-roledescription="subtitle" aria-label="Subtitle text 'Top channels; remainder grouped into Other'" pointer-events="none"><text text-anchor="start" transform="translate(0,32)" font-family="Inter" font-size="13px" font-weight="400" fill="#5f6b7a" opacity="1">Top channels; remainder grouped into Other</text></g></g><path class="foreground" aria-hidden="true" d="" pointer-events="none" display="none"/></g></g></g><path class="foreground" aria-hidden="true" d="" display="none"/></g></g></g></svg>