<svg xmlns="http://www.w3.org/2000/svg" xmlns:xlink="http://www.w3.org/1999/xlink" version="1.1" class="marks" width="694" height="583" viewBox="0 0 694 583"><rect width="694" height="557" fill="#ffffff"/><g fill="none" stroke-miterlimit="10" transform="translate(75,116)"><g class="mark-group role-frame root" role="graphics-object" aria-roledescription="group mark container"><g transform="translate(0,0)"><path class="background" aria-hidden="true" d="M0,0h600v380h-600Z"/><g><g class="mark-group role-axis" aria-hidden="true"><g transform="translate(0.5,380.5)"><path class="background" aria-hidden="true" d="M0,0h0v0h0Z" pointer-events="none"/><g><g class="mark-rule role-axis-grid" pointer-events="none"><line transform="translate(0,-380)" x2="0" y2="380" stroke="#ececf0" stroke-width="1" opacity="1"/><line transform="translate(38,-380)" x2="0" y2="380" stroke="#ececf0" stroke-width="1" opacity="1"/><line transform="translate(75,-380)" x2="0" y2="380" stroke="#ececf0" stroke-width="1" opacity="1"/><line transform="translate(113,-380)" x2="0" y2="380" stroke="#ececf0" stroke-width="1" opacity="1"/><line transform="translate(150,-380)" x2="0" y2="380" stroke="#ececf0" stroke-width="1" opacity="1"/><line transform="translate(188,-380)" x2="0" y2="380" stroke="#ececf0" stroke-width="1" opacity="1"/><line transform="translate(225,-380)" x2="0" y2="380" stroke="#ececf0" stroke-width="1" opacity="1"/><line transform="translate(263,-380)" x2="0" y2="380" stroke="#ececf0" stroke-width="1" opacity="1"/><line transform="translate(300,-380)" x2="0" y2="380" stroke="#ececf0" stroke-width="1" opacity="1"/><line transform="translate(338,-380)" x2="0" y2="380" stroke="#ececf0" stroke-width="1" opacity="1"/><line transform="translate(375,-380)" x2="0" y2="380" stroke="#ececf0" stroke-width="1" opacity="1"/><line transform="translate(413,-380)" x2="0" y2="380" stroke="#ececf0" stroke-width="1" opacity="1"/><line transform="translate(450,-380)" x2="0" y2="380" stroke="#ececf0" stroke-width="1" opacity="1"/><line transform="translate(488,-380)" x2="0" y2="380" stroke="#ececf0" stroke-width="1" opacity="1"/><line transform="translate(525,-380)" x2="0" y2="380" stroke="#ececf0" stroke-width="1" opacity="1"/><line transform="translate(563,-380)" x2="0" y2="380" stroke="#ececf0" stroke-width="1" opacity="1"/><line transform="translate(600,-380)" x2="0" y2="380" stroke="#ececf0" stroke-width="1" opacity="1"/></g></g><path class="foreground" aria-hidden="true" d="" pointer-events="none" display="none"/></g></g><g class="mark-group role-axis" aria-hidden="true"><g transform="translate(0.5,0.5)"><path class="background" aria-hidden="true" d="M0,0h0v0h0Z" pointer-events="none"/><g><g class="mark-rule role-axis-grid" pointer-events="none"><line transform="translate(0,380)" x2="600" y2="0" stroke="#ececf0" stroke-width="1" opacity="1"/><line transform="translate(0,345)" x2="600" y2="0" stroke="#ececf0" stroke-width="1" opacity="1"/><line transform="translate(0,311)" x2="600" y2="0" stroke="#ececf0" stroke-width="1" opacity="1"/><line transform="translate(0,276)" x2="600" y2="0" stroke="#ececf0" stroke-width="1" opacity="1"/><line transform="translate(0,242)" x2="600" y2="0" stroke="#ececf0" stroke-width="1" opacity="1"/><line transform="translate(0,207)" x2="600" y2="0" stroke="#ececf0" stroke-width="1" opacity="1"/><line transform="translate(0,173)" x2="600" y2="0" stroke="#ececf0" stroke-width="1" opacity="1"/><line transform="translate(0,138)" x2="600" y2="0" stroke="#ececf0" stroke-width="1" opacity="1"/><line transform="translate(0,104)" x2="600" y2="0" stroke="#ececf0" stroke-width="1" opacity="1"/><line transform="translate(0,69)" x2="600" y2="0" stroke="#ececf0" stroke-width="1" opacity="1"/><line transform="translate(0,35)" x2="600" y2="0" stroke="#ececf0" stroke-width="1" opacity="1"/><line transform="translate(0,0)" x2="600" y2="0" stroke="#ececf0" stroke-width="1" opacity="1"/></g></g><path class="foreground" aria-hidden="true" d="" pointer-events="none" display="none"/></g></g><g class="mark-group role-axis" role="graphics-symbol" aria-roledescription="axis" aria-label="X-axis titled 'Spend' for a linear scale with values from 20k to 180k"><g transform="translate(0.5,380.5)"><path class="background" aria-hidden="true" d="M0,0h0v0h0Z" pointer-events="none"/><g><g class="mark-rule role-axis-tick" pointer-events="none"><line transform="translate(0,0)" x2="0" y2="5" stroke="#c9ced6" stroke-width="1" opacity="1"/><line transform="translate(38,0)" x2="0" y2="5" stroke="#c9ced6" stroke-width="1" opacity="1"/><line transform="translate(75,0)" x2="0" y2="5" stroke="#c9ced6" stroke-width="1" opacity="1"/><line transform="translate(113,0)" x2="0" y2="5" stroke="#c9ced6" stroke-width="1" opacity="1"/><line transform="translate(150,0)" x2="0" y2="5" stroke="#c9ced6" stroke-width="1" opacity="1"/><line transform="translate(188,0)" x2="0" y2="5" stroke="#c9ced6" stroke-width="1" opacity="1"/><line transform="translate(225,0)" x2="0" y2="5" stroke="#c9ced6" stroke-width="1" opacity="1"/><line transform="translate(263,0)" x2="0" y2="5" stroke="#c9ced6" stroke-width="1" opacity="1"/><line transform="translate(300,0)" x2="0" y2="5" stroke="#c9ced6" stroke-width="1" opacity="1"/><line transform="translate(338,0)" x2="0" y2="5" stroke="#c9ced6" stroke-width="1" opacity="1"/><line transform="translate(375,0)" x2="0" y2="5" stroke="#c9ced6" stroke-width="1" opacity="1"/><line transform="translate(413,0)" x2="0" y2="5" stroke="#c9ced6" stroke-width="1" opacity="1"/><line transform="translate(450,0)" x2="0" y2="5" stroke="#c9ced6" stroke-width="1" opacity="1"/><line transform="translate(488,0)" x2="0" y2="5" stroke="#c9ced6" stroke-width="1" opacity="1"/><line transform="translate(525,0)" x2="0" y2="5" stroke="#c9ced6" stroke-width="1" opacity="1"/><line transform="translate(563,0)" x2="0" y2="5" stroke="#c9ced6" stroke-width="1" opacity="1"/><line transform="translate(600,0)" x2="0" y2="5" stroke="#c9ced6" stroke-width="1" opacity="1"/></g><g class="mark-text role-axis-label" pointer-events="none"><text text-anchor="start" transform="translate(0,20)" font-family="Inter" font-size="11px" fill="#5f6b7a" opacity="1">20k</text><text text-anchor="middle" transform="translate(37.5,20)" font-family="Inter" font-size="11px" fill="#5f6b7a" opacity="1">30k</text><text text-anchor="middle" transform="translate(75,20)" font-family="Inter" font-size="11px" fill="#5f6b7a" opacity="1">40k</text><text text-anchor="middle" transform="translate(112.5,20)" font-family="Inter" font-size="11px" fill="#5f6b7a" opacity="1">50k</text><text text-anchor="middle" transform="translate(150,20)" font-family="Inter" font-size="11px" fill="#5f6b7a" opacity="1">60k</text><text text-anchor="middle" transform="translate(187.5,20)" font-family="Inter" font-size="11px" fill="#5f6b7a" opacity="1">70k</text><text text-anchor="middle" transform="translate(225,20)" font-family="Inter" font-size="11px" fill="#5f6b7a" opacity="1">80k</text><text text-anchor="middle" transform="translate(262.5,20)" font-family="Inter" font-size="11px" fill="#5f6b7a" opacity="1">90k</text><text text-anchor="middle" transform="translate(300,20)" font-family="Inter" font-size="11px" fill="#5f6b7a" opacity="1">100k</text><text text-anchor="middle" transform="translate(337.5,20)" font-family="Inter" font-size="11px" fill="#5f6b7a" opacity="1">110k</text><text text-anchor="middle" transform="translate(375,20)" font-family="Inter" font-size="11px" fill="#5f6b7a" opacity="1">120k</text><text text-anchor="middle" transform="translate(412.5,20)" font-family="Inter" font-size="11px" fill="#5f6b7a" opacity="1">130k</text><text text-anchor="middle" transform="translate(450,20)" font-family="Inter" font-size="11px" fill="#5f6b7a" opacity="1">140k</text><text text-anchor="middle" transform="translate(487.5,20)" font-family="Inter" font-size="11px" fill="#5f6b7a" opacity="1">150k</text><text text-anchor="middle" transform="translate(525,20)" font-family="Inter" font-size="11px" fill="#5f6b7a" opacity="1">160k</text><text text-anchor="middle" transform="translate(562.5,20)" font-family="Inter" font-size="11px" fill="#5f6b7a" opacity="1">170k</text><text text-anchor="end" transform="translate(600,20)" font-family="Inter" font-size="11px" fill="#5f6b7a" opacity="1">180k</text></g><g class="mark-rule role-axis-domain" pointer-events="none"><line transform="translate(0,0)" x2="600" y2="0" stroke="#c9ced6" stroke-width="1" opacity="1"/></g><g class="mark-text role-axis-title" pointer-events="none"><text text-anchor="middle" transform="translate(300,41)" font-family="Inter" font-size="12px" font-weight="600" fill="#1c1e21" opacity="1">Spend</text></g></g><path class="foreground" aria-hidden="true" d="" pointer-events="none" display="none"/></g></g><g class="mark-group role-axis" role="graphics-symbol" aria-roledescription="axis" aria-label="Y-axis titled 'Revenue' for a linear scale with values from 50k to 600k"><g transform="translate(0.5,0.5)"><path class="background" aria-hidden="true" d="M0,0h0v0h0Z" pointer-events="none"/><g><g class="mark-text role-axis-label" pointer-events="none"><text text-anchor="end" transform="translate(-6,383)" font-family="Inter" font-size="11px" fill="#5f6b7a" opacity="1">50k</text><text text-anchor="end" transform="translate(-6,348.45454545454544)" font-family="Inter" font-size="11px" fill="#5f6b7a" opacity="1">100k</text><text text-anchor="end" transform="translate(-6,313.9090909090909)" font-family="Inter" font-size="11px" fill="#5f6b7a" opacity="1">150k</text><text text-anchor="end" transform="translate(-6,279.3636363636364)" font-family="Inter" font-size="11px" fill="#5f6b7a" opacity="1">200k</text><text text-anchor="end" transform="translate(-6,244.8181818181818)" font-family="Inter" font-size="11px" fill="#5f6b7a" opacity="1">250k</text><text text-anchor="end" transform="translate(-6,210.27272727272725)" font-family="Inter" font-size="11px" fill="#5f6b7a" opacity="1">300k</text><text text-anchor="end" transform="translate(-6,175.72727272727275)" font-family="Inter" font-size="11px" fill="#5f6b7a" opacity="1">350k</text><text text-anchor="end" transform="translate(-6,141.1818181818182)" font-family="Inter" font-size="11px" fill="#5f6b7a" opacity="1">400k</text><text text-anchor="end" transform="translate(-6,106.63636363636363)" font-family="Inter" font-size="11px" fill="#5f6b7a" opacity="1">450k</text><text text-anchor="end" transform="translate(-6,72.09090909090907)" font-family="Inter" font-size="11px" fill="#5f6b7a" opacity="1">500k</text><text text-anchor="end" transform="translate(-6,37.545454545454554)" font-family="Inter" font-size="11px" fill="#5f6b7a" opacity="1">550k</text><text text-anchor="end" transform="translate(-6,3)" font-family="Inter" font-size="11px" fill="#5f6b7a" opacity="1">600k</text></g><g class="mark-text role-axis-title" pointer-events="none"><text text-anchor="middle" transform="translate(-43.02197265625,190) rotate(-90) translate(0,-3)" font-family="Inter" font-size="12px" font-weight="600" fill="#1c1e21" opacity="1">Revenue</text></g></g><path class="foreground" aria-hidden="true" d="" pointer-events="none" display="none"/></g></g><g class="mark-symbol role-mark layer_0_marks" role="graphics-object" aria-roledescription="symbol mark container"><path aria-label="Spend: 20k; Revenue: 94k; Segment: Enterprise; Headcount: 5" role="graphics-symbol" aria-roledescription="point" transform="translate(0,349.6)" d="M3.304,0A3.304,3.304,0,1,1,-3.304,0A3.304,3.304,0,1,1,3.304,0" fill="#0072B2" stroke-width="2" opacity="0.7"/><path aria-label="Spend: 42k; Revenue: 198k; Segment: SMB; Headcount: 13" role="graphics-symbol" aria-roledescription="point" transform="translate(82.5,277.74545454545455)" d="M5.175,0A5.175,5.175,0,1,1,-5.175,0A5.175,5.175,0,1,1,5.175,0" fill="#E69F00" stroke-width="2" opacity="0.7"/><path aria-label="Spend: 64k; Revenue: 271k; Segment: Startup; Headcount: 21" role="graphics-symbol" aria-roledescription="point" transform="translate(165,227.30909090909088)" d="M6.531,0A6.531,6.531,0,1,1,-6.531,0A6.531,6.531,0,1,1,6.531,0" fill="#009E73" stroke-width="2" opacity="0.7"/><path aria-label="Spend: 41k; Revenue: 167k; Segment: Enterprise; Headcount: 29" role="graphics-symbol" aria-roledescription="point" transform="translate(78.75,299.16363636363633)" d="M7.65,0A7.65,7.65,0,1,1,-7.65,0A7.65,7.65,0,1,1,7.65,0" fill="#0072B2" stroke-width="2" opacity="0.7"/><path aria-label="Spend: 63k; Revenue: 201k; Segment: SMB; Headcount: 37" role="graphics-symbol" aria-roledescription="point" transform="translate(161.25,275.6727272727273)" d="M8.625,0A8.625,8.625,0,1,1,-8.625,0A8.625,8.625,0,1,1,8.625,0" fill="#E69F00" stroke-width="2" opacity="0.7"/><path aria-label="Spend: 85k; Revenue: 264k; Segment: Startup; Headcount: 45" role="graphics-symbol" aria-roledescription="point" transform="translate(243.75,232.14545454545453)" d="M9.5,0A9.5,9.5,0,1,1,-9.5,0A9.5,9.5,0,1,1,9.5,0" fill="#009E73" stroke-width="2" opacity="0.7"/><path aria-label="Spend: 62k; Revenue: 217k; Segment: Enterprise; Headcount: 5" role="graphics-symbol" aria-roledescription="point" transform="translate(157.5,264.61818181818177)" d="M3.304,0A3.304,3.304,0,1,1,-3.304,0A3.304,3.304,0,1,1,3.304,0" fill="#0072B2" stroke-width="2" opacity="0.7"/><path aria-label="Spend: 84k; Revenue: 325k; Segment: SMB; Headcount: 13" role="graphics-symbol" aria-roledescription="point" transform="translate(240,190)" d="M5.175,0A5.175,5.175,0,1,1,-5.175,0A5.175,5.175,0,1,1,5.175,0" fill="#E69F00" stroke-width="2" opacity="0.7"/><path aria-label="Spend: 106k; Revenue: 409k; Segment: Startup; Headcount: 21" role="graphics-symbol" aria-roledescription="point" transform="translate(322.5,131.96363636363637)" d="M6.531,0A6.531,6.531,0,1,1,-6.531,0A6.531,6.531,0,1,1,6.531,0" fill="#009E73" stroke-width="2" opacity="0.7"/><path aria-label="Spend: 83k; Revenue: 312k; Segment: Enterprise; Headcount: 29" role="graphics-symbol" aria-roledescription="point" transform="translate(236.25,198.9818181818182)" d="M7.65,0A7.65,7.65,0,1,1,-7.65,0A7.65,7.65,0,1,1,7.65,0" fill="#0072B2" stroke-width="2" opacity="0.7"/><path aria-label="Spend: 105k; Revenue: 344k; Segment: SMB; Headcount: 37" role="graphics-symbol" aria-roledescription="point" transform="translate(318.75,176.87272727272727)" d="M8.625,0A8.625,8.625,0,1,1,-8.625,0A8.625,8.625,0,1,1,8.625,0" fill="#E69F00" stroke-width="2" opacity="0.7"/><path aria-label="Spend: 127k; Revenue: 396k; Segment: Startup; Headcount: 45" role="graphics-symbol" aria-roledescription="point" transform="translate(401.25,140.94545454545454)" d="M9.5,0A9.5,9.5,0,1,1,-9.5,0A9.5,9.5,0,1,1,9.5,0" fill="#009E73" stroke-width="2" opacity="0.7"/><path aria-label="Spend: 104k; Revenue: 341k; Segment: Enterprise; Headcount: 5" role="graphics-symbol" aria-roledescription="point" transform="translate(315,178.94545454545457)" d="M3.304,0A3.304,3.304,0,1,1,-3.304,0A3.304,3.304,0,1,1,3.304,0" fill="#0072B2" stroke-width="2" opacity="0.7"/><path aria-label="Spend: 126k; Revenue: 450k; Segment: SMB; Headcount: 13" role="graphics-symbol" aria-roledescription="point" transform="translate(397.5,103.63636363636363)" d="M5.175,0A5.175,5.175,0,1,1,-5.175,0A5.175,5.175,0,1,1,5.175,0" fill="#E69F00" stroke-width="2" opacity="0.7"/><path aria-label="Spend: 148k; Revenue: 543k; Segment: Startup; Headcount: 21" role="graphics-symbol" aria-roledescription="point" transform="translate(480,39.38181818181818)" d="M6.531,0A6.531,6.531,0,1,1,-6.531,0A6.531,6.531,0,1,1,6.531,0" fill="#009E73" stroke-width="2" opacity="0.7"/><path aria-label="Spend: 125k; Revenue: 456k; Segment: Enterprise; Headcount: 29" role="graphics-symbol" aria-roledescription="point" transform="translate(393.75,99.4909090909091)" d="M7.65,0A7.65,7.65,0,1,1,-7.65,0A7.65,7.65,0,1,1,7.65,0" fill="#0072B2" stroke-width="2" opacity="0.7"/><path aria-label="Spend: 147k; Revenue: 489k; Segment: SMB; Headcount: 37" role="graphics-symbol" aria-roledescription="point" transform="translate(476.25,76.69090909090907)" d="M8.625,0A8.625,8.625,0,1,1,-8.625,0A8.625,8.625,0,1,1,8.625,0" fill="#E69F00" stroke-width="2" opacity="0.7"/><path aria-label="Spend: 169k; Revenue: 532k; Segment: Startup; Headcount: 45" role="graphics-symbol" aria-roledescription="point" transform="translate(558.75,46.98181818181819)" d="M9.5,0A9.5,9.5,0,1,1,-9.5,0A9.5,9.5,0,1,1,9.5,0" fill="#009E73" stroke-width="2" opacity="0.7"/></g><g class="mark-line role-mark layer_1_marks" role="graphics-object" aria-roledescription="line mark container"><path aria-label="spend: 20000; revenue: 103920.167124" role="graphics-symbol" aria-roledescription="line mark" d="M0,342.746L558.75,25.048" stroke="#8a94a3" stroke-width="2" stroke-dasharray="4,3"/></g><g class="mark-group role-legend" role="graphics-symbol" aria-roledescription="legend" aria-label="Symbol legend titled 'Segment' for fill color with 3 values: Enterprise, SMB, Startup"><g transform="translate(0,-49)"><path class="background" aria-hidden="true" d="M0,0h196v32h-196Z" pointer-events="none"/><g><g class="mark-group role-legend-entry"><g transform="translate(0,20)"><path class="background" aria-hidden="true" d="M0,0h0v0h0Z" pointer-events="none"/><g><g class="mark-group role-scope" role="graphics-object" aria-roledescription="group mark container"><g transform="translate(0,0)"><path class="background" aria-hidden="true" d="M0,0h74.03125v12h-74.03125Z" pointer-events="none" opacity="1"/><g><g class="mark-symbol role-legend-symbol" pointer-events="none"><path transform="translate(6,6)" d="M4.743,0A4.743,4.743,0,1,1,-4.743,0A4.743,4.743,0,1,1,4.743,0" fill="#0072B2" stroke-width="1.5" opacity="0.7"/></g><g class="mark-text role-legend-label" pointer-events="none"><text text-anchor="start" transform="translate(16,10)" font-family="Inter" font-size="12px" fill="#1c1e21" opacity="1">Enterprise</text></g></g><path class="foreground" aria-hidden="true" d="" pointer-events="none" display="none"/></g><g transform="translate(85,0)"><path class="background" aria-hidden="true" d="M0,0h42.390625v12h-42.390625Z" pointer-events="none" opacity="1"/><g><g class="mark-symbol role-legend-symbol" pointer-events="none"><path transform="translate(6,6)" d="M4.743,0A4.743,4.743,0,1,1,-4.743,0A4.743,4.743,0,1,1,4.743,0" fill="#E69F00" stroke-width="1.5" opacity="0.7"/></g><g class="mark-text role-legend-label" pointer-events="none"><text text-anchor="start" transform="translate(16,10)" font-family="Inter" font-size="12px" fill="#1c1e21" opacity="1">SMB</text></g></g><path class="foreground" aria-hidden="true" d="" pointer-events="none" display="none"/></g><g transform="translate(138,0)"><path class="background" aria-hidden="true" d="M0,0h57.49609375v12h-57.49609375Z" pointer-events="none" opacity="1"/><g><g class="mark-symbol role-legend-symbol" pointer-events="none"><path transform="translate(6,6)" d="M4.743,0A4.743,4.743,0,1,1,-4.743,0A4.743,4.743,0,1,1,4.743,0" fill="#009E73" stroke-width="1.5" opacity="0.7"/></g><g class="mark-text role-legend-label" pointer-events="none"><text text-anchor="start" transform="translate(16,10)" font-family="Inter" font-size="12px" fill="#1c1e21" opacity="1">Startup</text></g></g><path class="foreground" aria-hidden="true" d="" pointer-events="none" display="none"/></g></g></g><path class="foreground" aria-hidden="true" d="" pointer-events="none" display="none"/></g></g><g class="mark-text role-legend-title" pointer-events="none"><text text-anchor="start" transform="translate(0,9)" font-family="Inter" font-size="12px" font-weight="600" fill="#5f6b7a" opacity="1">Segment</text></g></g><path class="foreground" aria-hidden="true" d="" pointer-events="none" display="none"/></g></g><g class="mark-group role-legend" role="graphics-symbol" aria-roledescription="legend" aria-label="Symbol legend titled 'Headcount' for size with values from 0 to 45"><g transform="translate(204,-49)"><path class="background" aria-hidden="true" d="M0,0h208v41h-208Z" pointer-events="none"/><g><g class="mark-group role-legend-entry"><g transform="translate(0,20)"><path class="background" aria-hidden="true" d="M0,0h0v0h0Z" pointer-events="none"/><g><g class="mark-group role-scope" role="graphics-object" aria-roledescription="group mark container"><g transform="translate(0,4.5)"><path class="background" aria-hidden="true" d="M0,0h23.5703125v12h-23.5703125Z" pointer-events="none" opacity="1"/><g><g class="mark-symbol role-legend-symbol" pointer-events="none"><path transform="translate(6,6)" d="M1,0A1,1,0,1,1,-1,0A1,1,0,1,1,1,0" fill="black" fill-opacity="0.7" stroke-width="1.5" opacity="0.7"/></g><g class="mark-text role-legend-label" pointer-events="none"><text text-anchor="start" transform="translate(16,10)" font-family="Inter" font-size="12px" fill="#1c1e21" opacity="1">0</text></g></g><path class="foreground" aria-hidden="true" d="" pointer-events="none" display="none"/></g><g transform="translate(35,4.4678226770618075)"><path class="background" aria-hidden="true" d="M0,0h28.451171875v12.064354645876385h-28.451171875Z" pointer-events="none" opacity="1"/><g><g class="mark-symbol role-legend-symbol" pointer-events="none"><path transform="translate(6,6)" d="M4.564,0A4.564,4.564,0,1,1,-4.564,0A4.564,4.564,0,1,1,4.564,0" fill="black" fill-opacity="0.7" stroke-width="1.5" opacity="0.7"/></g><g class="mark-text role-legend-label" pointer-events="none"><text text-anchor="start" transform="translate(16,10)" font-family="Inter" font-size="12px" fill="#1c1e21" opacity="1">10</text></g></g><path class="foreground" aria-hidden="true" d="" pointer-events="none" display="none"/></g><g transform="translate(75,2.8114789217151683)"><path class="background" aria-hidden="true" d="M0,0h33.888671875v15.377042156569665h-33.888671875Z" pointer-events="none" opacity="1"/><g><g class="mark-symbol role-legend-symbol" pointer-events="none"><path transform="translate(7.5,7.5)" d="M6.377,0A6.377,6.377,0,1,1,-6.377,0A6.377,6.377,0,1,1,6.377,0" fill="black" fill-opacity="0.7" stroke-width="1.5" opacity="0.7"/></g><g class="mark-text role-legend-label" pointer-events="none"><text text-anchor="start" transform="translate(19,11.5)" font-family="Inter" font-size="12px" fill="#1c1e21" opacity="1">20</text></g></g><path class="foreground" aria-hidden="true" d="" pointer-events="none" display="none"/></g><g transform="translate(120,1.3609127034739892)"><path class="background" aria-hidden="true" d="M0,0h36.982421875v18.27817459305202h-36.982421875Z" pointer-events="none" opacity="1"/><g><g class="mark-symbol role-legend-symbol" pointer-events="none"><path transform="translate(9,9)" d="M7.778,0A7.778,7.778,0,1,1,-7.778,0A7.778,7.778,0,1,1,7.778,0" fill="black" fill-opacity="0.7" stroke-width="1.5" opacity="0.7"/></g><g class="mark-text role-legend-label" pointer-events="none"><text text-anchor="start" transform="translate(22,13)" font-family="Inter" font-size="12px" fill="#1c1e21" opacity="1">30</text></g></g><path class="foreground" aria-hidden="true" d="" pointer-events="none" display="none"/></g><g transform="translate(168,0.26855678008374895)"><path class="background" aria-hidden="true" d="M0,0h39.322265625v20.462886439832502h-39.322265625Z" pointer-events="none" opacity="1"/><g><g class="mark-symbol role-legend-symbol" pointer-events="none"><path transform="translate(10,10)" d="M8.963,0A8.963,8.963,0,1,1,-8.963,0A8.963,8.963,0,1,1,8.963,0" fill="black" fill-opacity="0.7" stroke-width="1.5" opacity="0.7"/></g><g class="mark-text role-legend-label" pointer-events="none"><text text-anchor="start" transform="translate(24,14)" font-family="Inter" font-size="12px" fill="#1c1e21" opacity="1">40</text></g></g><path class="foreground" aria-hidden="true" d="" pointer-events="none" display="none"/></g></g></g><path class="foreground" aria-hidden="true" d="" pointer-events="none" display="none"/></g></g><g class="mark-text role-legend-title" pointer-events="none"><text text-anchor="start" transform="translate(0,9)" font-family="Inter" font-size="12px" font-weight="600" fill="#5f6b7a" opacity="1">Headcount</text></g></g><path class="foreground" aria-hidden="true" d="" pointer-events="none" display="none"/></g></g><g class="mark-group role-title"><g transform="translate(-56.02197265625,-98)"><path class="background" aria-hidden="true" d="M0,0h0v0h0Z" pointer-events="none"/><g><g class="mark-text role-title-text" role="graphics-symbol" aria-roledescription="title" aria-label="Title text 'Revenue vs. marketing spend'" pointer-events="none"><text text-anchor="start" transform="translate(0,13)" font-family="Inter" font-size="16px" font-weight="700" fill="#1c1e21" opacity="1">Revenue vs. marketing spend</text></g><g class="mark-text role-title-subtitle" role="graphics-symbol" aria-roledescription="subtitle" aria-label="Subtitle text 'Bubble size = headcount'" pointer-events="none"><text text-anchor="start" transform="translate(0,32)" font-family="Inter" font-size="13px" font-weight="400" fill="#5f6b7a" opacity="1">Bubble size = headcount</text></g></g><path class="foreground" aria-hidden="true" d="" pointer-events="none" display="none"/></g></g></g><path class="foreground" aria-hidden="true" d="" display="none"/></g></g></g><text x="18" y="573" font-family="Inter, sans-serif" font-size="11" fill="#8a94a3">Source: synthetic</text></svg>