<svg xmlns="http://www.w3.org/2000/svg" xmlns:xlink="http://www.w3.org/1999/xlink" version="1.1" class="marks" width="784" height="494" viewBox="0 0 784 494"><rect width="784" height="494" fill="#ffffff"/><g fill="none" stroke-miterlimit="10" transform="translate(44,69)"><g class="mark-group role-frame root" role="graphics-object" aria-roledescription="group mark container"><g transform="translate(0,0)"><path class="background" aria-hidden="true" d="M0,0h600v380h-600Z"/><g><g class="mark-group role-axis" role="graphics-symbol" aria-roledescription="axis" aria-label="X-axis for a discrete scale with 2 values: 2019, 2024"><g transform="translate(0.5,380.5)"><path class="background" aria-hidden="true" d="M0,0h0v0h0Z" pointer-events="none"/><g><g class="mark-text role-axis-label" pointer-events="none"><text text-anchor="middle" transform="translate(157.14285714285714,15)" font-family="Inter" font-size="11px" font-weight="600" fill="#5f6b7a" opacity="1">2019</text><text text-anchor="middle" transform="translate(442.8571428571429,15)" font-family="Inter" font-size="11px" font-weight="600" fill="#5f6b7a" opacity="1">2024</text></g></g><path class="foreground" aria-hidden="true" d="" pointer-events="none" display="none"/></g></g><g class="mark-group role-axis"><g transform="translate(0.5,0.5)"><path class="background" aria-hidden="true" d="M0,0h0v0h0Z" pointer-events="none"/><g/><path class="foreground" aria-hidden="true" d="" pointer-events="none" display="none"/></g></g><g class="mark-group role-scope layer_0_pathgroup" role="graphics-object" aria-roledescription="group mark container"><g transform="translate(0,0)"><path class="background" aria-hidden="true" d="M0,0h600v380h-600Z"/><g><g class="mark-line role-mark layer_0_marks" role="graphics-object" aria-roledescription="line mark container"><path aria-label="year: 2019; Share: 38; category: Mobile" role="graphics-symbol" aria-roledescription="line mark" d="M157.143,139.333L442.857,19" stroke="#0072B2" stroke-width="2"/></g></g><path class="foreground" aria-hidden="true" d="" display="none"/></g><g transform="translate(0,0)"><path class="background" aria-hidden="true" d="M0,0h600v380h-600Z"/><g><g class="mark-line role-mark layer_0_marks" role="graphics-object" aria-roledescription="line mark container"><path aria-label="year: 2019; Share: 44; category: Desktop" role="graphics-symbol" aria-roledescription="line mark" d="M157.143,101.333L442.857,215.333" stroke="#cdd3db" stroke-width="2"/></g></g><path class="foreground" aria-hidden="true" d="" display="none"/></g><g transform="translate(0,0)"><path class="background" aria-hidden="true" d="M0,0h600v380h-600Z"/><g><g class="mark-line role-mark layer_0_marks" role="graphics-object" aria-roledescription="line mark container"><path aria-label="year: 2019; Share: 12; category: Tablet" role="graphics-symbol" aria-roledescription="line mark" d="M157.143,304L442.857,323" stroke="#cdd3db" stroke-width="2"/></g></g><path class="foreground" aria-hidden="true" d="" display="none"/></g><g transform="translate(0,0)"><path class="background" aria-hidden="true" d="M0,0h600v380h-600Z"/><g><g class="mark-line role-mark layer_0_marks" role="graphics-object" aria-roledescription="line mark container"><path aria-label="year: 2019; Share: 6; category: Other" role="graphics-symbol" aria-roledescription="line mark" d="M157.143,342L442.857,354.667" stroke="#cdd3db" stroke-width="2"/></g></g><path class="foreground" aria-hidden="true" d="" display="none"/></g></g><g class="mark-symbol role-mark layer_1_marks" role="graphics-object" aria-roledescription="symbol mark container"><path aria-label="year: 2019; Share: 38; category: Mobile" role="graphics-symbol" aria-roledescription="point" transform="translate(157.14285714285714,139.33333333333334)" d="M4.183,0A4.183,4.183,0,1,1,-4.183,0A4.183,4.183,0,1,1,4.183,0" fill="#0072B2" stroke-width="2" opacity="0.7"/><path aria-label="year: 2024; Share: 57; category: Mobile" role="graphics-symbol" aria-roledescription="point" transform="translate(442.8571428571429,19.000000000000018)" d="M4.183,0A4.183,4.183,0,1,1,-4.183,0A4.183,4.183,0,1,1,4.183,0" fill="#0072B2" stroke-width="2" opacity="0.7"/><path aria-label="year: 2019; Share: 44; category: Desktop" role="graphics-symbol" aria-roledescription="point" transform="translate(157.14285714285714,101.33333333333336)" d="M4.183,0A4.183,4.183,0,1,1,-4.183,0A4.183,4.183,0,1,1,4.183,0" fill="#cdd3db" stroke-width="2" opacity="0.7"/><path aria-label="year: 2024; Share: 26; category: Desktop" role="graphics-symbol" aria-roledescription="point" transform="translate(442.8571428571429,215.33333333333331)" d="M4.183,0A4.183,4.183,0,1,1,-4.183,0A4.183,4.183,0,1,1,4.183,0" fill="#cdd3db" stroke-width="2" opacity="0.7"/><path aria-label="year: 2019; Share: 12; category: Tablet" role="graphics-symbol" aria-roledescription="point" transform="translate(157.14285714285714,304)" d="M4.183,0A4.183,4.183,0,1,1,-4.183,0A4.183,4.183,0,1,1,4.183,0" fill="#cdd3db" stroke-width="2" opacity="0.7"/><path aria-label="year: 2024; Share: 9; category: Tablet" role="graphics-symbol" aria-roledescription="point" transform="translate(442.8571428571429,323)" d="M4.183,0A4.183,4.183,0,1,1,-4.183,0A4.183,4.183,0,1,1,4.183,0" fill="#cdd3db" stroke-width="2" opacity="0.7"/><path aria-label="year: 2019; Share: 6; category: Other" role="graphics-symbol" aria-roledescription="point" transform="translate(157.14285714285714,342)" d="M4.183,0A4.183,4.183,0,1,1,-4.183,0A4.183,4.183,0,1,1,4.183,0" fill="#cdd3db" stroke-width="2" opacity="0.7"/><path aria-label="year: 2024; Share: 4; category: Other" role="graphics-symbol" aria-roledescription="point" transform="translate(442.8571428571429,354.6666666666667)" d="M4.183,0A4.183,4.183,0,1,1,-4.183,0A4.183,4.183,0,1,1,4.183,0" fill="#cdd3db" stroke-width="2" opacity="0.7"/></g><g class="mark-text role-mark layer_2_marks" role="graphics-object" aria-roledescription="text mark container"><text aria-label="year: 2019; Share: 38; share: 38" role="graphics-symbol" aria-roledescription="text mark" text-anchor="end" transform="translate(147.14285714285714,142.33333333333334)" font-family="Inter" font-size="11px" font-weight="500" fill="#1c1e21">38</text><text aria-label="year: 2019; Share: 44; share: 44" role="graphics-symbol" aria-roledescription="text mark" text-anchor="end" transform="translate(147.14285714285714,104.33333333333336)" font-family="Inter" font-size="11px" font-weight="500" fill="#1c1e21">44</text><text aria-label="year: 2019; Share: 12; share: 12" role="graphics-symbol" aria-roledescription="text mark" text-anchor="end" transform="translate(147.14285714285714,307)" font-family="Inter" font-size="11px" font-weight="500" fill="#1c1e21">12</text><text aria-label="year: 2019; Share: 6; share: 6" role="graphics-symbol" aria-roledescription="text mark" text-anchor="end" transform="translate(147.14285714285714,345)" font-family="Inter" font-size="11px" font-weight="500" fill="#1c1e21">6</text></g><g class="mark-text role-mark layer_3_marks" role="graphics-object" aria-roledescription="text mark container"><text aria-label="year: 2024; Share: 57; category: Mobile" role="graphics-symbol" aria-roledescription="text mark" text-anchor="start" transform="translate(454.8571428571429,22.000000000000018)" font-family="Inter" font-size="11px" font-weight="600" fill="#0072B2">Mobile   57</text><text aria-label="year: 2024; Share: 26; category: Desktop" role="graphics-symbol" aria-roledescription="text mark" text-anchor="start" transform="translate(454.8571428571429,218.33333333333331)" font-family="Inter" font-size="11px" font-weight="600" fill="#cdd3db">Desktop   26</text><text aria-label="year: 2024; Share: 9; category: Tablet" role="graphics-symbol" aria-roledescription="text mark" text-anchor="start" transform="translate(454.8571428571429,326)" font-family="Inter" font-size="11px" font-weight="600" fill="#cdd3db">Tablet   9</text><text aria-label="year: 2024; Share: 4; category: Other" role="graphics-symbol" aria-roledescription="text mark" text-anchor="start" transform="translate(454.8571428571429,357.6666666666667)" font-family="Inter" font-size="11px" font-weight="600" fill="#cdd3db">Other   4</text></g><g class="mark-group role-title"><g transform="translate(0,-49)"><path class="background" aria-hidden="true" d="M0,0h0v0h0Z" pointer-events="none"/><g><g class="mark-text role-title-text" role="graphics-symbol" aria-roledescription="title" aria-label="Title text 'Traffic share by device, 2019 → 2024'" pointer-events="none"><text text-anchor="start" transform="translate(0,13)" font-family="Inter" font-size="16px" font-weight="700" fill="#1c1e21" opacity="1">Traffic share by device, 2019 → 2024</text></g><g class="mark-text role-title-subtitle" role="graphics-symbol" aria-roledescription="subtitle" aria-label="Subtitle text 'Percent of sessions'" pointer-events="none"><text text-anchor="start" transform="translate(0,32)" font-family="Inter" font-size="13px" font-weight="400" fill="#5f6b7a" opacity="1">Percent of sessions</text></g></g><path class="foreground" aria-hidden="true" d="" pointer-events="none" display="none"/></g></g></g><path class="foreground" aria-hidden="true" d="" display="none"/></g></g></g></svg>