<svg xmlns="http://www.w3.org/2000/svg" xmlns:xlink="http://www.w3.org/1999/xlink" version="1.1" class="marks" width="692" height="514" viewBox="0 0 692 514"><rect width="692" height="514" fill="#ffffff"/><g fill="none" stroke-miterlimit="10" transform="translate(74,73)"><g class="mark-group role-frame root" role="graphics-object" aria-roledescription="group mark container"><g transform="translate(0,0)"><path class="background" aria-hidden="true" d="M0,0h600v380h-600Z"/><g><g class="mark-group role-axis" aria-hidden="true"><g transform="translate(0.5,0.5)"><path class="background" aria-hidden="true" d="M0,0h0v0h0Z" pointer-events="none"/><g><g class="mark-rule role-axis-grid" pointer-events="none"><line transform="translate(0,380)" x2="600" y2="0" stroke="#ececf0" stroke-width="1" opacity="1"/><line transform="translate(0,338)" x2="600" y2="0" stroke="#ececf0" stroke-width="1" opacity="1"/><line transform="translate(0,296)" x2="600" y2="0" stroke="#ececf0" stroke-width="1" opacity="1"/><line transform="translate(0,253)" x2="600" y2="0" stroke="#ececf0" stroke-width="1" opacity="1"/><line transform="translate(0,211)" x2="600" y2="0" stroke="#ececf0" stroke-width="1" opacity="1"/><line transform="translate(0,169)" x2="600" y2="0" stroke="#ececf0" stroke-width="1" opacity="1"/><line transform="translate(0,127)" x2="600" y2="0" stroke="#ececf0" stroke-width="1" opacity="1"/><line transform="translate(0,84)" x2="600" y2="0" stroke="#ececf0" stroke-width="1" opacity="1"/><line transform="translate(0,42)" x2="600" y2="0" stroke="#ececf0" stroke-width="1" opacity="1"/><line transform="translate(0,0)" x2="600" y2="0" stroke="#ececf0" stroke-width="1" opacity="1"/></g></g><path class="foreground" aria-hidden="true" d="" pointer-events="none" display="none"/></g></g><g class="mark-group role-axis" role="graphics-symbol" aria-roledescription="axis" aria-label="X-axis titled 'Region' for a discrete scale with 4 values: North America, EMEA, APAC, LATAM"><g transform="translate(0.5,380.5)"><path class="background" aria-hidden="true" d="M0,0h0v0h0Z" pointer-events="none"/><g><g class="mark-rule role-axis-tick" pointer-events="none"><line transform="translate(75,0)" x2="0" y2="5" stroke="#c9ced6" stroke-width="1" opacity="1"/><line transform="translate(225,0)" x2="0" y2="5" stroke="#c9ced6" stroke-width="1" opacity="1"/><line transform="translate(375,0)" x2="0" y2="5" stroke="#c9ced6" stroke-width="1" opacity="1"/><line transform="translate(525,0)" x2="0" y2="5" stroke="#c9ced6" stroke-width="1" opacity="1"/></g><g class="mark-text role-axis-label" pointer-events="none"><text text-anchor="middle" transform="translate(74.5,20)" font-family="Inter" font-size="11px" fill="#5f6b7a" opacity="1">North America</text><text text-anchor="middle" transform="translate(224.5,20)" font-family="Inter" font-size="11px" fill="#5f6b7a" opacity="1">EMEA</text><text text-anchor="middle" transform="translate(374.5,20)" font-family="Inter" font-size="11px" fill="#5f6b7a" opacity="1">APAC</text><text text-anchor="middle" transform="translate(524.5,20)" font-family="Inter" font-size="11px" fill="#5f6b7a" opacity="1">LATAM</text></g><g class="mark-rule role-axis-domain" pointer-events="none"><line transform="translate(0,0)" x2="600" y2="0" stroke="#c9ced6" stroke-width="1" opacity="1"/></g><g class="mark-text role-axis-title" pointer-events="none"><text text-anchor="middle" transform="translate(300,41)" font-family="Inter" font-size="12px" font-weight="600" fill="#1c1e21" opacity="1">Region</text></g></g><path class="foreground" aria-hidden="true" d="" pointer-events="none" display="none"/></g></g><g class="mark-group role-axis" role="graphics-symbol" aria-roledescription="axis" aria-label="Y-axis titled 'Revenue' for a linear scale with values from 0M to 5M"><g transform="translate(0.5,0.5)"><path class="background" aria-hidden="true" d="M0,0h0v0h0Z" pointer-events="none"/><g><g class="mark-text role-axis-label" pointer-events="none"><text text-anchor="end" transform="translate(-6,383)" font-family="Inter" font-size="11px" fill="#5f6b7a" opacity="1">0M</text><text text-anchor="end" transform="translate(-6,340.77777777777777)" font-family="Inter" font-size="11px" fill="#5f6b7a" opacity="1">0.5M</text><text text-anchor="end" transform="translate(-6,298.55555555555554)" font-family="Inter" font-size="11px" fill="#5f6b7a" opacity="1">1M</text><text text-anchor="end" transform="translate(-6,256.33333333333337)" font-family="Inter" font-size="11px" fill="#5f6b7a" opacity="1">1.5M</text><text text-anchor="end" transform="translate(-6,214.11111111111111)" font-family="Inter" font-size="11px" fill="#5f6b7a" opacity="1">2M</text><text text-anchor="end" transform="translate(-6,171.88888888888889)" font-family="Inter" font-size="11px" fill="#5f6b7a" opacity="1">2.5M</text><text text-anchor="end" transform="translate(-6,129.66666666666669)" font-family="Inter" font-size="11px" fill="#5f6b7a" opacity="1">3M</text><text text-anchor="end" transform="translate(-6,87.44444444444444)" font-family="Inter" font-size="11px" fill="#5f6b7a" opacity="1">3.5M</text><text text-anchor="end" transform="translate(-6,45.22222222222224)" font-family="Inter" font-size="11px" fill="#5f6b7a" opacity="1">4M</text><text text-anchor="end" transform="translate(-6,3)" font-family="Inter" font-size="11px" fill="#5f6b7a" opacity="1">4.5M</text></g><g class="mark-text role-axis-title" pointer-events="none"><text text-anchor="middle" transform="translate(-42.2109375,190) rotate(-90) translate(0,-3)" font-family="Inter" font-size="12px" font-weight="600" fill="#1c1e21" opacity="1">Revenue</text></g></g><path class="foreground" aria-hidden="true" d="" pointer-events="none" display="none"/></g></g><g class="mark-rect role-mark layer_0_marks" role="graphics-object" aria-roledescription="rect mark container"><path aria-label="Region: North America; Revenue: 4.2M" role="graphics-symbol" aria-roledescription="bar" d="M9.5,25.33333333333333L140.5,25.33333333333333C141.603830048988,25.33333333333333,142.5,26.229503284345327,142.5,27.33333333333333L142.5,380C142.5,380,142.5,380,142.5,380L7.5,380C7.5,380,7.5,380,7.5,380L7.5,27.33333333333333C7.5,26.229503284345327,8.396169951012,25.33333333333333,9.5,25.33333333333333Z" fill="#cdd3db"/><path aria-label="Region: EMEA; Revenue: 3.1M" role="graphics-symbol" aria-roledescription="bar" d="M159.5,118.22222222222223L290.5,118.22222222222223C291.603830048988,118.22222222222223,292.5,119.11839217323423,292.5,120.22222222222223L292.5,380C292.5,380,292.5,380,292.5,380L157.5,380C157.5,380,157.5,380,157.5,380L157.5,120.22222222222223C157.5,119.11839217323423,158.396169951012,118.22222222222223,159.5,118.22222222222223Z" fill="#cdd3db"/><path aria-label="Region: APAC; Revenue: 2.75M" role="graphics-symbol" aria-roledescription="bar" d="M309.5,147.77777777777777L440.5,147.77777777777777C441.603830048988,147.77777777777777,442.5,148.67394772878978,442.5,149.77777777777777L442.5,380C442.5,380,442.5,380,442.5,380L307.5,380C307.5,380,307.5,380,307.5,380L307.5,149.77777777777777C307.5,148.67394772878978,308.396169951012,147.77777777777777,309.5,147.77777777777777Z" fill="#d81b60"/><path aria-label="Region: LATAM; Revenue: 980k" role="graphics-symbol" aria-roledescription="bar" d="M459.5,297.24444444444447L590.5,297.24444444444447C591.603830048988,297.24444444444447,592.5,298.14061439545645,592.5,299.24444444444447L592.5,380C592.5,380,592.5,380,592.5,380L457.5,380C457.5,380,457.5,380,457.5,380L457.5,299.24444444444447C457.5,298.14061439545645,458.396169951012,297.24444444444447,459.5,297.24444444444447Z" fill="#cdd3db"/></g><g class="mark-text role-mark layer_1_marks" role="graphics-object" aria-roledescription="text mark container"><text aria-label="Region: North America; Revenue: 4.2M; revenue: 4.2M" role="graphics-symbol" aria-roledescription="text mark" text-anchor="middle" transform="translate(75,19.33333333333333)" font-family="Inter" font-size="11px" font-weight="500" fill="#1c1e21">4.2M</text><text aria-label="Region: EMEA; Revenue: 3.1M; revenue: 3.1M" role="graphics-symbol" aria-roledescription="text mark" text-anchor="middle" transform="translate(225,112.22222222222223)" font-family="Inter" font-size="11px" font-weight="500" fill="#1c1e21">3.1M</text><text aria-label="Region: APAC; Revenue: 2.75M; revenue: 2.75M" role="graphics-symbol" aria-roledescription="text mark" text-anchor="middle" transform="translate(375,141.77777777777777)" font-family="Inter" font-size="11px" font-weight="500" fill="#1c1e21">2.75M</text><text aria-label="Region: LATAM; Revenue: 980k; revenue: 980k" role="graphics-symbol" aria-roledescription="text mark" text-anchor="middle" transform="translate(525,291.24444444444447)" font-family="Inter" font-size="11px" font-weight="500" fill="#1c1e21">980k</text></g><g class="mark-group role-title"><g transform="translate(-55.2109375,-55)"><path class="background" aria-hidden="true" d="M0,0h0v0h0Z" pointer-events="none"/><g><g class="mark-text role-title-text" role="graphics-symbol" aria-roledescription="title" aria-label="Title text 'Custom accent color'" pointer-events="none"><text text-anchor="start" transform="translate(0,13)" font-family="Inter" font-size="16px" font-weight="700" fill="#1c1e21" opacity="1">Custom accent color</text></g><g class="mark-text role-title-subtitle" role="graphics-symbol" aria-roledescription="subtitle" aria-label="Subtitle text 'accentColor #d81b60, auto-clamped for contrast'" pointer-events="none"><text text-anchor="start" transform="translate(0,32)" font-family="Inter" font-size="13px" font-weight="400" fill="#5f6b7a" opacity="1">accentColor #d81b60, auto-clamped for contrast</text></g></g><path class="foreground" aria-hidden="true" d="" pointer-events="none" display="none"/></g></g></g><path class="foreground" aria-hidden="true" d="" display="none"/></g></g></g></svg>