<svg xmlns="http://www.w3.org/2000/svg" xmlns:xlink="http://www.w3.org/1999/xlink" version="1.1" class="marks" width="686" height="507" viewBox="0 0 686 507"><rect width="686" height="507" fill="#ffffff"/><g fill="none" stroke-miterlimit="10" transform="translate(68,87)"><g class="mark-group role-frame root" role="graphics-object" aria-roledescription="group mark container"><g transform="translate(0,0)"><path class="background" aria-hidden="true" d="M0,0h600v380h-600Z"/><g><g class="mark-group role-axis" aria-hidden="true"><g transform="translate(0.5,0.5)"><path class="background" aria-hidden="true" d="M0,0h0v0h0Z" pointer-events="none"/><g><g class="mark-rule role-axis-grid" pointer-events="none"><line transform="translate(0,380)" x2="600" y2="0" stroke="#ececf0" stroke-width="1" opacity="1"/><line transform="translate(0,342)" x2="600" y2="0" stroke="#ececf0" stroke-width="1" opacity="1"/><line transform="translate(0,304)" x2="600" y2="0" stroke="#ececf0" stroke-width="1" opacity="1"/><line transform="translate(0,266)" x2="600" y2="0" stroke="#ececf0" stroke-width="1" opacity="1"/><line transform="translate(0,228)" x2="600" y2="0" stroke="#ececf0" stroke-width="1" opacity="1"/><line transform="translate(0,190)" x2="600" y2="0" stroke="#ececf0" stroke-width="1" opacity="1"/><line transform="translate(0,152)" x2="600" y2="0" stroke="#ececf0" stroke-width="1" opacity="1"/><line transform="translate(0,114)" x2="600" y2="0" stroke="#ececf0" stroke-width="1" opacity="1"/><line transform="translate(0,76)" x2="600" y2="0" stroke="#ececf0" stroke-width="1" opacity="1"/><line transform="translate(0,38)" x2="600" y2="0" stroke="#ececf0" stroke-width="1" opacity="1"/><line transform="translate(0,0)" x2="600" y2="0" stroke="#ececf0" stroke-width="1" opacity="1"/></g></g><path class="foreground" aria-hidden="true" d="" pointer-events="none" display="none"/></g></g><g class="mark-group role-axis" role="graphics-symbol" aria-roledescription="axis" aria-label="X-axis for a discrete scale with 6 values: Opening, New sales, Upsell, Churn, Discounts, Net MRR"><g transform="translate(0.5,380.5)"><path class="background" aria-hidden="true" d="M0,0h0v0h0Z" pointer-events="none"/><g><g class="mark-rule role-axis-tick" pointer-events="none"><line transform="translate(50,0)" x2="0" y2="5" stroke="#c9ced6" stroke-width="1" opacity="1"/><line transform="translate(150,0)" x2="0" y2="5" stroke="#c9ced6" stroke-width="1" opacity="1"/><line transform="translate(250,0)" x2="0" y2="5" stroke="#c9ced6" stroke-width="1" opacity="1"/><line transform="translate(350,0)" x2="0" y2="5" stroke="#c9ced6" stroke-width="1" opacity="1"/><line transform="translate(450,0)" x2="0" y2="5" stroke="#c9ced6" stroke-width="1" opacity="1"/><line transform="translate(550,0)" x2="0" y2="5" stroke="#c9ced6" stroke-width="1" opacity="1"/></g><g class="mark-text role-axis-label" pointer-events="none"><text text-anchor="middle" transform="translate(49.5,20)" font-family="Inter" font-size="11px" fill="#5f6b7a" opacity="1">Opening</text><text text-anchor="middle" transform="translate(149.5,20)" font-family="Inter" font-size="11px" fill="#5f6b7a" opacity="1">New sales</text><text text-anchor="middle" transform="translate(249.5,20)" font-family="Inter" font-size="11px" fill="#5f6b7a" opacity="1">Upsell</text><text text-anchor="middle" transform="translate(349.5,20)" font-family="Inter" font-size="11px" fill="#5f6b7a" opacity="1">Churn</text><text text-anchor="middle" transform="translate(449.5,20)" font-family="Inter" font-size="11px" fill="#5f6b7a" opacity="1">Discounts</text><text text-anchor="middle" transform="translate(549.5,20)" font-family="Inter" font-size="11px" fill="#5f6b7a" opacity="1">Net MRR</text></g><g class="mark-rule role-axis-domain" pointer-events="none"><line transform="translate(0,0)" x2="600" y2="0" stroke="#c9ced6" stroke-width="1" opacity="1"/></g></g><path class="foreground" aria-hidden="true" d="" pointer-events="none" display="none"/></g></g><g class="mark-group role-axis" role="graphics-symbol" aria-roledescription="axis" aria-label="Y-axis titled 'Amount' for a linear scale with values from 0 to 200"><g transform="translate(0.5,0.5)"><path class="background" aria-hidden="true" d="M0,0h0v0h0Z" pointer-events="none"/><g><g class="mark-text role-axis-label" pointer-events="none"><text text-anchor="end" transform="translate(-6,383)" font-family="Inter" font-size="11px" fill="#5f6b7a" opacity="1">0</text><text text-anchor="end" transform="translate(-6,345)" font-family="Inter" font-size="11px" fill="#5f6b7a" opacity="1">20</text><text text-anchor="end" transform="translate(-6,307)" font-family="Inter" font-size="11px" fill="#5f6b7a" opacity="1">40</text><text text-anchor="end" transform="translate(-6,269)" font-family="Inter" font-size="11px" fill="#5f6b7a" opacity="1">60</text><text text-anchor="end" transform="translate(-6,231)" font-family="Inter" font-size="11px" fill="#5f6b7a" opacity="1">80</text><text text-anchor="end" transform="translate(-6,193)" font-family="Inter" font-size="11px" fill="#5f6b7a" opacity="1">100</text><text text-anchor="end" transform="translate(-6,155)" font-family="Inter" font-size="11px" fill="#5f6b7a" opacity="1">120</text><text text-anchor="end" transform="translate(-6,117.00000000000001)" font-family="Inter" font-size="11px" fill="#5f6b7a" opacity="1">140</text><text text-anchor="end" transform="translate(-6,78.99999999999999)" font-family="Inter" font-size="11px" fill="#5f6b7a" opacity="1">160</text><text text-anchor="end" transform="translate(-6,40.99999999999999)" font-family="Inter" font-size="11px" fill="#5f6b7a" opacity="1">180</text><text text-anchor="end" transform="translate(-6,3)" font-family="Inter" font-size="11px" fill="#5f6b7a" opacity="1">200</text></g><g class="mark-text role-axis-title" pointer-events="none"><text text-anchor="middle" transform="translate(-36.58740234375,190) rotate(-90) translate(0,-3)" font-family="Inter" font-size="12px" font-weight="600" fill="#1c1e21" opacity="1">Amount</text></g></g><path class="foreground" aria-hidden="true" d="" pointer-events="none" display="none"/></g></g><g class="mark-rect role-mark layer_0_marks" role="graphics-object" aria-roledescription="rect mark container"><path aria-label="label: Opening; Amount: 0; end: 120; kindLabel: Increase" role="graphics-symbol" aria-roledescription="bar" d="M7,152L93,152C94.103830048988,152,95,152.896169951012,95,154L95,378C95,379.103830048988,94.103830048988,380,93,380L7,380C5.896169951012,380,5,379.103830048988,5,378L5,154C5,152.896169951012,5.896169951012,152,7,152Z" fill="#009E73"/><path aria-label="label: New sales; Amount: 120; end: 168; kindLabel: Increase" role="graphics-symbol" aria-roledescription="bar" d="M107,60.80000000000001L193,60.80000000000001C194.103830048988,60.80000000000001,195,61.69616995101201,195,62.80000000000001L195,150C195,151.103830048988,194.103830048988,152,193,152L107,152C105.896169951012,152,105,151.103830048988,105,150L105,62.80000000000001C105,61.69616995101201,105.896169951012,60.80000000000001,107,60.80000000000001Z" fill="#009E73"/><path aria-label="label: Upsell; Amount: 168; end: 186; kindLabel: Increase" role="graphics-symbol" aria-roledescription="bar" d="M207,26.59999999999998L293,26.59999999999998C294.103830048988,26.59999999999998,295,27.49616995101198,295,28.59999999999998L295,58.80000000000001C295,59.90383004898801,294.103830048988,60.80000000000001,293,60.80000000000001L207,60.80000000000001C205.896169951012,60.80000000000001,205,59.90383004898801,205,58.80000000000001L205,28.59999999999998C205,27.49616995101198,205.896169951012,26.59999999999998,207,26.59999999999998Z" fill="#009E73"/><path aria-label="label: Churn; Amount: 186; end: 164; kindLabel: Decrease" role="graphics-symbol" aria-roledescription="bar" d="M307,26.59999999999998L393,26.59999999999998C394.103830048988,26.59999999999998,395,27.49616995101198,395,28.59999999999998L395,66.40000000000002C395,67.50383004898802,394.103830048988,68.40000000000002,393,68.40000000000002L307,68.40000000000002C305.896169951012,68.40000000000002,305,67.50383004898802,305,66.40000000000002L305,28.59999999999998C305,27.49616995101198,305.896169951012,26.59999999999998,307,26.59999999999998Z" fill="#D55E00"/><path aria-label="label: Discounts; Amount: 164; end: 155; kindLabel: Decrease" role="graphics-symbol" aria-roledescription="bar" d="M407,68.40000000000002L493,68.40000000000002C494.103830048988,68.40000000000002,495,69.29616995101202,495,70.40000000000002L495,83.49999999999999C495,84.60383004898799,494.103830048988,85.49999999999999,493,85.49999999999999L407,85.49999999999999C405.896169951012,85.49999999999999,405,84.60383004898799,405,83.49999999999999L405,70.40000000000002C405,69.29616995101202,405.896169951012,68.40000000000002,407,68.40000000000002Z" fill="#D55E00"/><path aria-label="label: Net MRR; Amount: 0; end: 155; kindLabel: Total" role="graphics-symbol" aria-roledescription="bar" d="M507,85.49999999999999L593,85.49999999999999C594.103830048988,85.49999999999999,595,86.39616995101198,595,87.49999999999999L595,378C595,379.103830048988,594.103830048988,380,593,380L507,380C505.896169951012,380,505,379.103830048988,505,378L505,87.49999999999999C505,86.39616995101198,505.896169951012,85.49999999999999,507,85.49999999999999Z" fill="#3a3f47"/></g><g class="mark-text role-mark layer_1_marks" role="graphics-object" aria-roledescription="text mark container"><text aria-label="label: Opening; top: 120; disp: +120" role="graphics-symbol" aria-roledescription="text mark" text-anchor="middle" transform="translate(50,146)" font-family="Inter" font-size="11px" font-weight="500" fill="#1c1e21">+120</text><text aria-label="label: New sales; top: 168; disp: +48" role="graphics-symbol" aria-roledescription="text mark" text-anchor="middle" transform="translate(150,54.80000000000001)" font-family="Inter" font-size="11px" font-weight="500" fill="#1c1e21">+48</text><text aria-label="label: Upsell; top: 186; disp: +18" role="graphics-symbol" aria-roledescription="text mark" text-anchor="middle" transform="translate(250,20.59999999999998)" font-family="Inter" font-size="11px" font-weight="500" fill="#1c1e21">+18</text><text aria-label="label: Churn; top: 186; disp: -22" role="graphics-symbol" aria-roledescription="text mark" text-anchor="middle" transform="translate(350,20.59999999999998)" font-family="Inter" font-size="11px" font-weight="500" fill="#1c1e21">-22</text><text aria-label="label: Discounts; top: 164; disp: -9" role="graphics-symbol" aria-roledescription="text mark" text-anchor="middle" transform="translate(450,62.40000000000002)" font-family="Inter" font-size="11px" font-weight="500" fill="#1c1e21">-9</text><text aria-label="label: Net MRR; top: 155; disp: 155" role="graphics-symbol" aria-roledescription="text mark" text-anchor="middle" transform="translate(550,79.49999999999999)" font-family="Inter" font-size="11px" font-weight="500" fill="#1c1e21">155</text></g><g class="mark-group role-legend" role="graphics-symbol" aria-roledescription="legend" aria-label="Symbol legend for fill color with 3 values: Increase, Decrease, Total"><g transform="translate(0,-20)"><path class="background" aria-hidden="true" d="M0,0h200v12h-200Z" pointer-events="none"/><g><g class="mark-group role-legend-entry"><g transform="translate(0,0)"><path class="background" aria-hidden="true" d="M0,0h0v0h0Z" pointer-events="none"/><g><g class="mark-group role-scope" role="graphics-object" aria-roledescription="group mark container"><g transform="translate(0,0)"><path class="background" aria-hidden="true" d="M0,0h64.66796875v12h-64.66796875Z" pointer-events="none" opacity="1"/><g><g class="mark-symbol role-legend-symbol" pointer-events="none"><path transform="translate(6,6)" d="M4.743,0A4.743,4.743,0,1,1,-4.743,0A4.743,4.743,0,1,1,4.743,0" fill="#009E73" stroke-width="1.5" opacity="1"/></g><g class="mark-text role-legend-label" pointer-events="none"><text text-anchor="start" transform="translate(16,10)" font-family="Inter" font-size="12px" fill="#1c1e21" opacity="1">Increase</text></g></g><path class="foreground" aria-hidden="true" d="" pointer-events="none" display="none"/></g><g transform="translate(75,0)"><path class="background" aria-hidden="true" d="M0,0h70.01171875v12h-70.01171875Z" pointer-events="none" opacity="1"/><g><g class="mark-symbol role-legend-symbol" pointer-events="none"><path transform="translate(6,6)" d="M4.743,0A4.743,4.743,0,1,1,-4.743,0A4.743,4.743,0,1,1,4.743,0" fill="#D55E00" stroke-width="1.5" opacity="1"/></g><g class="mark-text role-legend-label" pointer-events="none"><text text-anchor="start" transform="translate(16,10)" font-family="Inter" font-size="12px" fill="#1c1e21" opacity="1">Decrease</text></g></g><path class="foreground" aria-hidden="true" d="" pointer-events="none" display="none"/></g><g transform="translate(156,0)"><path class="background" aria-hidden="true" d="M0,0h43.6328125v12h-43.6328125Z" pointer-events="none" opacity="1"/><g><g class="mark-symbol role-legend-symbol" pointer-events="none"><path transform="translate(6,6)" d="M4.743,0A4.743,4.743,0,1,1,-4.743,0A4.743,4.743,0,1,1,4.743,0" fill="#3a3f47" stroke-width="1.5" opacity="1"/></g><g class="mark-text role-legend-label" pointer-events="none"><text text-anchor="start" transform="translate(16,10)" font-family="Inter" font-size="12px" fill="#1c1e21" opacity="1">Total</text></g></g><path class="foreground" aria-hidden="true" d="" pointer-events="none" display="none"/></g></g></g><path class="foreground" aria-hidden="true" d="" pointer-events="none" display="none"/></g></g></g><path class="foreground" aria-hidden="true" d="" pointer-events="none" display="none"/></g></g><g class="mark-group role-title"><g transform="translate(-49.58740234375,-69)"><path class="background" aria-hidden="true" d="M0,0h0v0h0Z" pointer-events="none"/><g><g class="mark-text role-title-text" role="graphics-symbol" aria-roledescription="title" aria-label="Title text 'MRR bridge — Q2'" pointer-events="none"><text text-anchor="start" transform="translate(0,13)" font-family="Inter" font-size="16px" font-weight="700" fill="#1c1e21" opacity="1">MRR bridge — Q2</text></g><g class="mark-text role-title-subtitle" role="graphics-symbol" aria-roledescription="subtitle" aria-label="Subtitle text 'Movement in monthly recurring revenue ($K)'" pointer-events="none"><text text-anchor="start" transform="translate(0,32)" font-family="Inter" font-size="13px" font-weight="400" fill="#5f6b7a" opacity="1">Movement in monthly recurring revenue ($K)</text></g></g><path class="foreground" aria-hidden="true" d="" pointer-events="none" display="none"/></g></g></g><path class="foreground" aria-hidden="true" d="" display="none"/></g></g></g></svg>